<svg width="1280" height="700" viewBox="0 0 1280 700" fill="none" xmlns="http://www.w3.org/2000/svg">
<g clip-path="url(#clip0_302_486)">
<path d="M166.552 515.969C170.99 497.677 197.01 497.677 201.448 515.969C202.114 518.717 203.419 521.269 205.257 523.417C207.096 525.565 209.416 527.248 212.028 528.331C214.64 529.413 217.47 529.863 220.289 529.644C223.108 529.426 225.836 528.545 228.25 527.073C244.323 517.281 262.729 535.677 252.938 551.76C251.468 554.173 250.588 556.899 250.37 559.716C250.152 562.533 250.602 565.362 251.683 567.973C252.764 570.583 254.445 572.902 256.591 574.74C258.737 576.578 261.286 577.884 264.031 578.552C282.323 582.99 282.323 609.01 264.031 613.448C261.283 614.114 258.731 615.419 256.583 617.257C254.435 619.096 252.752 621.416 251.669 624.028C250.587 626.64 250.137 629.47 250.356 632.289C250.574 635.108 251.455 637.836 252.927 640.25C262.719 656.323 244.323 674.729 228.24 664.938C225.827 663.468 223.101 662.588 220.284 662.37C217.467 662.152 214.638 662.602 212.027 663.683C209.417 664.764 207.098 666.445 205.26 668.591C203.422 670.737 202.116 673.286 201.448 676.031C197.01 694.323 170.99 694.323 166.552 676.031C165.886 673.283 164.581 670.731 162.743 668.583C160.904 666.435 158.584 664.752 155.972 663.669C153.36 662.587 150.53 662.137 147.711 662.356C144.892 662.574 142.164 663.455 139.75 664.927C123.677 674.719 105.271 656.323 115.063 640.24C116.532 637.827 117.412 635.101 117.63 632.284C117.848 629.467 117.398 626.638 116.317 624.027C115.236 621.417 113.555 619.098 111.409 617.26C109.263 615.422 106.714 614.116 103.969 613.448C85.6771 609.01 85.6771 582.99 103.969 578.552C106.717 577.886 109.269 576.581 111.417 574.743C113.565 572.904 115.248 570.584 116.331 567.972C117.413 565.36 117.863 562.53 117.644 559.711C117.426 556.892 116.545 554.164 115.073 551.75C105.281 535.677 123.677 517.271 139.76 527.063C150.135 533.396 163.677 527.792 166.552 515.969Z" stroke="#6B7280" stroke-width="2" stroke-linecap="round" stroke-linejoin="round"/>
<path d="M215.25 596C215.25 604.288 211.958 612.237 206.097 618.097C200.237 623.958 192.288 627.25 184 627.25C175.712 627.25 167.763 623.958 161.903 618.097C156.042 612.237 152.75 604.288 152.75 596C152.75 587.712 156.042 579.763 161.903 573.903C167.763 568.042 175.712 564.75 184 564.75C192.288 564.75 200.237 568.042 206.097 573.903C211.958 579.763 215.25 587.712 215.25 596Z" stroke="#6B7280" stroke-width="2" stroke-linecap="round" stroke-linejoin="round"/>
<path d="M1137.55 2.96875C1141.99 -15.3229 1168.01 -15.3229 1172.45 2.96875C1173.11 5.71666 1174.42 8.26853 1176.26 10.4167C1178.1 12.5648 1180.42 14.2485 1183.03 15.3307C1185.64 16.4129 1188.47 16.863 1191.29 16.6445C1194.11 16.4259 1196.84 15.5448 1199.25 14.0729C1215.32 4.28125 1233.73 22.6771 1223.94 38.7604C1222.47 41.1735 1221.59 43.8993 1221.37 46.7164C1221.15 49.5334 1221.6 52.3622 1222.68 54.9727C1223.76 57.5832 1225.45 59.9019 1227.59 61.7401C1229.74 63.5784 1232.29 64.8844 1235.03 65.5521C1253.32 69.9896 1253.32 96.0104 1235.03 100.448C1232.28 101.114 1229.73 102.419 1227.58 104.257C1225.44 106.096 1223.75 108.416 1222.67 111.028C1221.59 113.64 1221.14 116.47 1221.36 119.289C1221.57 122.108 1222.46 124.836 1223.93 127.25C1233.72 143.323 1215.32 161.729 1199.24 151.938C1196.83 150.468 1194.1 149.588 1191.28 149.37C1188.47 149.152 1185.64 149.602 1183.03 150.683C1180.42 151.764 1178.1 153.445 1176.26 155.591C1174.42 157.737 1173.12 160.286 1172.45 163.031C1168.01 181.323 1141.99 181.323 1137.55 163.031C1136.89 160.283 1135.58 157.731 1133.74 155.583C1131.9 153.435 1129.58 151.752 1126.97 150.669C1124.36 149.587 1121.53 149.137 1118.71 149.356C1115.89 149.574 1113.16 150.455 1110.75 151.927C1094.68 161.719 1076.27 143.323 1086.06 127.24C1087.53 124.827 1088.41 122.101 1088.63 119.284C1088.85 116.467 1088.4 113.638 1087.32 111.027C1086.24 108.417 1084.55 106.098 1082.41 104.26C1080.26 102.422 1077.71 101.116 1074.97 100.448C1056.68 96.0104 1056.68 69.9896 1074.97 65.5521C1077.72 64.8863 1080.27 63.581 1082.42 61.7426C1084.56 59.9042 1086.25 57.5845 1087.33 54.9724C1088.41 52.3603 1088.86 49.5295 1088.64 46.7106C1088.43 43.8916 1087.54 41.1641 1086.07 38.75C1076.28 22.6771 1094.68 4.27083 1110.76 14.0625C1121.14 20.3958 1134.68 14.7917 1137.55 2.96875Z" stroke="#6B7280" stroke-width="2" stroke-linecap="round" stroke-linejoin="round"/>
<path d="M1186.25 83C1186.25 91.288 1182.96 99.2366 1177.1 105.097C1171.24 110.958 1163.29 114.25 1155 114.25C1146.71 114.25 1138.76 110.958 1132.9 105.097C1127.04 99.2366 1123.75 91.288 1123.75 83C1123.75 74.712 1127.04 66.7634 1132.9 60.9029C1138.76 55.0424 1146.71 51.75 1155 51.75C1163.29 51.75 1171.24 55.0424 1177.1 60.9029C1182.96 66.7634 1186.25 74.712 1186.25 83Z" stroke="#6B7280" stroke-width="2" stroke-linecap="round" stroke-linejoin="round"/>
<path d="M1014.9 515.541C1008.04 498.012 1029.35 483.087 1043.48 495.526C1045.6 497.395 1048.13 498.736 1050.87 499.442C1053.61 500.147 1056.48 500.195 1059.24 499.584C1062 498.972 1064.57 497.717 1066.76 495.921C1068.94 494.125 1070.67 491.839 1071.8 489.249C1079.35 472.009 1104.98 476.52 1106.19 495.311C1106.37 498.131 1107.21 500.868 1108.65 503.301C1110.08 505.734 1112.08 507.793 1114.46 509.311C1116.84 510.83 1119.55 511.764 1122.36 512.04C1125.17 512.315 1128.01 511.922 1130.64 510.895C1148.17 504.038 1163.1 525.353 1150.66 539.48C1148.79 541.601 1147.45 544.134 1146.74 546.872C1146.04 549.61 1145.99 552.476 1146.6 555.236C1147.21 557.997 1148.47 560.574 1150.26 562.758C1152.06 564.941 1154.34 566.67 1156.93 567.804C1174.17 575.353 1169.66 600.982 1150.87 602.187C1148.05 602.367 1145.31 603.21 1142.88 604.647C1140.45 606.084 1138.39 608.075 1136.87 610.458C1135.35 612.84 1134.42 615.548 1134.14 618.36C1133.87 621.172 1134.26 624.009 1135.29 626.641C1142.14 644.17 1120.83 659.095 1106.7 646.657C1104.58 644.787 1102.05 643.446 1099.31 642.741C1096.57 642.035 1093.71 641.987 1090.95 642.599C1088.19 643.21 1085.61 644.465 1083.43 646.261C1081.24 648.057 1079.51 650.343 1078.38 652.934C1070.83 670.174 1045.2 665.662 1044 646.871C1043.82 644.051 1042.97 641.314 1041.54 638.881C1040.1 636.448 1038.11 634.389 1035.73 632.871C1033.34 631.352 1030.63 630.418 1027.82 630.143C1025.01 629.867 1022.17 630.26 1019.54 631.288C1002.01 638.144 987.088 616.829 999.526 602.703C1001.4 600.581 1002.74 598.048 1003.44 595.31C1004.15 592.572 1004.2 589.706 1003.58 586.946C1002.97 584.185 1001.72 581.608 999.922 579.424C998.126 577.241 995.84 575.512 993.249 574.379C976.009 566.829 980.521 541.2 999.312 539.996C1011.44 539.233 1019.32 526.875 1014.9 515.541Z" stroke="#6B7280" stroke-width="2" stroke-linecap="round" stroke-linejoin="round"/>
<path d="M1100.69 553.167C1105.44 559.956 1107.31 568.355 1105.87 576.517C1104.43 584.68 1099.8 591.936 1093.02 596.689C1086.23 601.443 1077.83 603.305 1069.66 601.866C1061.5 600.427 1054.25 595.804 1049.49 589.015C1044.74 582.226 1042.88 573.827 1044.32 565.664C1045.76 557.502 1050.38 550.246 1057.17 545.492C1063.96 540.739 1072.36 538.877 1080.52 540.316C1088.68 541.755 1095.94 546.378 1100.69 553.167Z" stroke="#6B7280" stroke-width="2" stroke-linecap="round" stroke-linejoin="round"/>
<path d="M572.531 560.981C575.194 550.006 590.806 550.006 593.469 560.981C593.868 562.63 594.651 564.161 595.754 565.45C596.858 566.739 598.249 567.749 599.817 568.398C601.384 569.048 603.082 569.318 604.774 569.187C606.465 569.056 608.102 568.527 609.55 567.644C619.194 561.769 630.238 572.806 624.363 582.456C623.481 583.904 622.953 585.54 622.822 587.23C622.691 588.92 622.961 590.617 623.61 592.184C624.258 593.75 625.267 595.141 626.555 596.244C627.842 597.347 629.371 598.131 631.019 598.531C641.994 601.194 641.994 616.806 631.019 619.469C629.37 619.868 627.839 620.651 626.55 621.754C625.261 622.858 624.251 624.249 623.602 625.817C622.952 627.384 622.682 629.082 622.813 630.774C622.944 632.465 623.473 634.102 624.356 635.55C630.231 645.194 619.194 656.238 609.544 650.363C608.096 649.481 606.46 648.953 604.77 648.822C603.08 648.691 601.383 648.961 599.816 649.61C598.25 650.258 596.859 651.267 595.756 652.555C594.653 653.842 593.869 655.371 593.469 657.019C590.806 667.994 575.194 667.994 572.531 657.019C572.132 655.37 571.349 653.839 570.246 652.55C569.142 651.261 567.751 650.251 566.183 649.602C564.616 648.952 562.918 648.682 561.226 648.813C559.535 648.944 557.898 649.473 556.45 650.356C546.806 656.231 535.762 645.194 541.637 635.544C542.519 634.096 543.047 632.46 543.178 630.77C543.309 629.08 543.039 627.383 542.39 625.816C541.742 624.25 540.733 622.859 539.445 621.756C538.158 620.653 536.629 619.869 534.981 619.469C524.006 616.806 524.006 601.194 534.981 598.531C536.63 598.132 538.161 597.349 539.45 596.246C540.739 595.142 541.749 593.751 542.398 592.183C543.048 590.616 543.318 588.918 543.187 587.226C543.056 585.535 542.527 583.898 541.644 582.45C535.769 572.806 546.806 561.762 556.456 567.637C562.681 571.437 570.806 568.075 572.531 560.981Z" stroke="#6B7280" stroke-width="2" stroke-linecap="round" stroke-linejoin="round"/>
<path d="M601.75 609C601.75 613.973 599.775 618.742 596.258 622.258C592.742 625.775 587.973 627.75 583 627.75C578.027 627.75 573.258 625.775 569.742 622.258C566.225 618.742 564.25 613.973 564.25 609C564.25 604.027 566.225 599.258 569.742 595.742C573.258 592.225 578.027 590.25 583 590.25C587.973 590.25 592.742 592.225 596.258 595.742C599.775 599.258 601.75 604.027 601.75 609Z" stroke="#6B7280" stroke-width="2" stroke-linecap="round" stroke-linejoin="round"/>
<path d="M686.531 536.981C689.194 526.006 704.806 526.006 707.469 536.981C707.868 538.63 708.651 540.161 709.754 541.45C710.858 542.739 712.249 543.749 713.817 544.398C715.384 545.048 717.082 545.318 718.774 545.187C720.465 545.056 722.102 544.527 723.55 543.644C733.194 537.769 744.238 548.806 738.363 558.456C737.481 559.904 736.953 561.54 736.822 563.23C736.691 564.92 736.961 566.617 737.61 568.184C738.258 569.75 739.267 571.141 740.555 572.244C741.842 573.347 743.371 574.131 745.019 574.531C755.994 577.194 755.994 592.806 745.019 595.469C743.37 595.868 741.839 596.651 740.55 597.754C739.261 598.858 738.251 600.249 737.602 601.817C736.952 603.384 736.682 605.082 736.813 606.774C736.944 608.465 737.473 610.102 738.356 611.55C744.231 621.194 733.194 632.238 723.544 626.363C722.096 625.481 720.46 624.953 718.77 624.822C717.08 624.691 715.383 624.961 713.816 625.61C712.25 626.258 710.859 627.267 709.756 628.555C708.653 629.842 707.869 631.371 707.469 633.019C704.806 643.994 689.194 643.994 686.531 633.019C686.132 631.37 685.349 629.839 684.246 628.55C683.142 627.261 681.751 626.251 680.183 625.602C678.616 624.952 676.918 624.682 675.226 624.813C673.535 624.944 671.898 625.473 670.45 626.356C660.806 632.231 649.762 621.194 655.637 611.544C656.519 610.096 657.047 608.46 657.178 606.77C657.309 605.08 657.039 603.383 656.39 601.816C655.742 600.25 654.733 598.859 653.445 597.756C652.158 596.653 650.629 595.869 648.981 595.469C638.006 592.806 638.006 577.194 648.981 574.531C650.63 574.132 652.161 573.349 653.45 572.246C654.739 571.142 655.749 569.751 656.398 568.183C657.048 566.616 657.318 564.918 657.187 563.226C657.056 561.535 656.527 559.898 655.644 558.45C649.769 548.806 660.806 537.762 670.456 543.637C676.681 547.437 684.806 544.075 686.531 536.981Z" stroke="#6B7280" stroke-width="2" stroke-linecap="round" stroke-linejoin="round"/>
<path d="M715.75 585C715.75 589.973 713.775 594.742 710.258 598.258C706.742 601.775 701.973 603.75 697 603.75C692.027 603.75 687.258 601.775 683.742 598.258C680.225 594.742 678.25 589.973 678.25 585C678.25 580.027 680.225 575.258 683.742 571.742C687.258 568.225 692.027 566.25 697 566.25C701.973 566.25 706.742 568.225 710.258 571.742C713.775 575.258 715.75 580.027 715.75 585Z" stroke="#6B7280" stroke-width="2" stroke-linecap="round" stroke-linejoin="round"/>
<path d="M977.881 5.66988C973.767 -4.84746 986.556 -13.8024 995.032 -6.33938C996.305 -5.21794 997.825 -4.41291 999.468 -3.98981C1001.11 -3.56671 1002.83 -3.5375 1004.49 -3.90456C1006.14 -4.27161 1007.69 -5.02456 1009 -6.10211C1010.31 -7.17967 1011.35 -8.55138 1012.03 -10.1056C1016.56 -20.4495 1031.93 -17.7426 1032.66 -6.46802C1032.76 -4.77618 1033.27 -3.13371 1034.13 -1.67411C1034.99 -0.214517 1036.19 1.02101 1037.62 1.93206C1039.05 2.8431 1040.67 3.40395 1042.36 3.56901C1044.05 3.73407 1045.75 3.49868 1047.33 2.88198C1057.85 -1.23202 1066.8 11.557 1059.34 20.033C1058.22 21.3059 1057.41 22.8256 1056.99 24.4685C1056.57 26.1113 1056.54 27.8309 1056.9 29.4871C1057.27 31.1434 1058.02 32.6896 1059.1 33.9999C1060.18 35.3101 1061.55 36.3475 1063.1 37.0274C1073.45 41.5574 1070.74 56.9347 1059.47 57.6572C1057.78 57.7653 1056.13 58.271 1054.67 59.1333C1053.21 59.9956 1051.98 61.1902 1051.07 62.6198C1050.16 64.0495 1049.6 65.674 1049.43 67.3612C1049.27 69.0484 1049.5 70.7508 1050.12 72.3299C1054.23 82.8473 1041.44 91.8023 1032.97 84.3392C1031.69 83.2178 1030.17 82.4127 1028.53 81.9896C1026.89 81.5665 1025.17 81.5373 1023.51 81.9044C1021.86 82.2714 1020.31 83.0244 1019 84.1019C1017.69 85.1795 1016.65 86.5512 1015.97 88.1054C1011.44 98.4494 996.064 95.7424 995.342 84.4678C995.234 82.776 994.728 81.1335 993.866 79.6739C993.003 78.2143 991.809 76.9788 990.379 76.0678C988.95 75.1567 987.325 74.5959 985.638 74.4308C983.951 74.2658 982.248 74.5011 980.669 75.1178C970.152 79.2318 961.197 66.4428 968.66 57.9668C969.781 56.6939 970.586 55.1742 971.009 53.5313C971.433 51.8885 971.462 50.169 971.095 48.5127C970.728 46.8564 969.975 45.3102 968.897 44C967.82 42.6897 966.448 41.6523 964.894 40.9724C954.55 36.4425 957.257 21.0651 968.531 20.3426C975.81 19.8849 980.537 12.4702 977.881 5.66988Z" stroke="#6B7280" stroke-width="2" stroke-linecap="round" stroke-linejoin="round"/>
<path d="M1029.36 28.2455C1032.21 32.319 1033.33 37.3587 1032.47 42.256C1031.6 47.1532 1028.83 51.5069 1024.75 54.3592C1020.68 57.2114 1015.64 58.3287 1010.74 57.4652C1005.85 56.6017 1001.49 53.8281 998.641 49.7546C995.789 45.6811 994.672 40.6414 995.535 35.7441C996.399 30.8469 999.172 26.4932 1003.25 23.6409C1007.32 20.7887 1012.36 19.6714 1017.26 20.5349C1022.15 21.3984 1026.51 24.172 1029.36 28.2455Z" stroke="#6B7280" stroke-width="2" stroke-linecap="round" stroke-linejoin="round"/>
<path d="M872.531 710.981C875.194 700.006 890.806 700.006 893.469 710.981C893.868 712.63 894.651 714.161 895.754 715.45C896.858 716.739 898.249 717.749 899.817 718.398C901.384 719.048 903.082 719.318 904.774 719.187C906.465 719.056 908.102 718.527 909.55 717.644C919.194 711.769 930.238 722.806 924.363 732.456C923.481 733.904 922.953 735.54 922.822 737.23C922.691 738.92 922.961 740.617 923.61 742.184C924.258 743.75 925.267 745.141 926.555 746.244C927.842 747.347 929.371 748.131 931.019 748.531C941.994 751.194 941.994 766.806 931.019 769.469C929.37 769.868 927.839 770.651 926.55 771.754C925.261 772.858 924.251 774.249 923.602 775.817C922.952 777.384 922.682 779.082 922.813 780.774C922.944 782.465 923.473 784.102 924.356 785.55C930.231 795.194 919.194 806.238 909.544 800.363C908.096 799.481 906.46 798.953 904.77 798.822C903.08 798.691 901.383 798.961 899.816 799.61C898.25 800.258 896.859 801.267 895.756 802.555C894.653 803.842 893.869 805.371 893.469 807.019C890.806 817.994 875.194 817.994 872.531 807.019C872.132 805.37 871.349 803.839 870.246 802.55C869.142 801.261 867.751 800.251 866.183 799.602C864.616 798.952 862.918 798.682 861.226 798.813C859.535 798.944 857.898 799.473 856.45 800.356C846.806 806.231 835.762 795.194 841.637 785.544C842.519 784.096 843.047 782.46 843.178 780.77C843.309 779.08 843.039 777.383 842.39 775.816C841.742 774.25 840.733 772.859 839.445 771.756C838.158 770.653 836.629 769.869 834.981 769.469C824.006 766.806 824.006 751.194 834.981 748.531C836.63 748.132 838.161 747.349 839.45 746.246C840.739 745.142 841.749 743.751 842.398 742.183C843.048 740.616 843.318 738.918 843.187 737.226C843.056 735.535 842.527 733.898 841.644 732.45C835.769 722.806 846.806 711.762 856.456 717.637C862.681 721.437 870.806 718.075 872.531 710.981Z" stroke="#6B7280" stroke-width="2" stroke-linecap="round" stroke-linejoin="round"/>
<path d="M39.5312 386.981C42.1937 376.006 57.8063 376.006 60.4688 386.981C60.8682 388.63 61.6514 390.161 62.7544 391.45C63.8575 392.739 65.2493 393.749 66.8166 394.398C68.3838 395.048 70.0823 395.318 71.7737 395.187C73.465 395.056 75.1015 394.527 76.55 393.644C86.1937 387.769 97.2375 398.806 91.3625 408.456C90.4806 409.904 89.9528 411.54 89.822 413.23C89.6911 414.92 89.961 416.617 90.6096 418.184C91.2581 419.75 92.2671 421.141 93.5545 422.244C94.842 423.347 96.3715 424.131 98.0188 424.531C108.994 427.194 108.994 442.806 98.0188 445.469C96.37 445.868 94.8389 446.651 93.55 447.754C92.2611 448.858 91.2509 450.249 90.6016 451.817C89.9523 453.384 89.6822 455.082 89.8133 456.774C89.9445 458.465 90.4731 460.102 91.3563 461.55C97.2313 471.194 86.1937 482.238 76.5437 476.363C75.0959 475.481 73.4604 474.953 71.7702 474.822C70.0799 474.691 68.3827 474.961 66.8164 475.61C65.2501 476.258 63.8589 477.267 62.7559 478.555C61.653 479.842 60.8693 481.371 60.4688 483.019C57.8063 493.994 42.1937 493.994 39.5312 483.019C39.1318 481.37 38.3486 479.839 37.2456 478.55C36.1425 477.261 34.7507 476.251 33.1834 475.602C31.6162 474.952 29.9177 474.682 28.2263 474.813C26.535 474.944 24.8985 475.473 23.45 476.356C13.8062 482.231 2.7625 471.194 8.6375 461.544C9.51938 460.096 10.0472 458.46 10.178 456.77C10.3089 455.08 10.039 453.383 9.39045 451.816C8.74188 450.25 7.73288 448.859 6.44546 447.756C5.15803 446.653 3.62852 445.869 1.98125 445.469C-8.99375 442.806 -8.99375 427.194 1.98125 424.531C3.63 424.132 5.16112 423.349 6.45 422.246C7.73888 421.142 8.74909 419.751 9.39841 418.183C10.0477 416.616 10.3178 414.918 10.1867 413.226C10.0555 411.535 9.52689 409.898 8.64375 408.45C2.76875 398.806 13.8062 387.762 23.4562 393.637C29.6812 397.437 37.8062 394.075 39.5312 386.981Z" stroke="#6B7280" stroke-width="2" stroke-linecap="round" stroke-linejoin="round"/>
<path d="M68.75 435C68.75 439.973 66.7746 444.742 63.2583 448.258C59.7419 451.775 54.9728 453.75 50 453.75C45.0272 453.75 40.2581 451.775 36.7417 448.258C33.2254 444.742 31.25 439.973 31.25 435C31.25 430.027 33.2254 425.258 36.7417 421.742C40.2581 418.225 45.0272 416.25 50 416.25C54.9728 416.25 59.7419 418.225 63.2583 421.742C66.7746 425.258 68.75 430.027 68.75 435Z" stroke="#6B7280" stroke-width="2" stroke-linecap="round" stroke-linejoin="round"/>
<path d="M589.021 31.9875C590.796 24.6708 601.204 24.6708 602.979 31.9875C603.245 33.0867 603.768 34.1074 604.503 34.9667C605.238 35.8259 606.166 36.4994 607.211 36.9323C608.256 37.3652 609.388 37.5452 610.516 37.4578C611.643 37.3704 612.734 37.0179 613.7 36.4292C620.129 32.5125 627.492 39.8708 623.575 46.3042C622.987 47.2694 622.635 48.3597 622.548 49.4866C622.461 50.6134 622.641 51.7449 623.073 52.7891C623.505 53.8333 624.178 54.7607 625.036 55.496C625.895 56.2314 626.914 56.7538 628.012 57.0208C635.329 58.7958 635.329 69.2042 628.012 70.9792C626.913 71.2455 625.893 71.7676 625.033 72.503C624.174 73.2383 623.501 74.1662 623.068 75.211C622.635 76.2559 622.455 77.3882 622.542 78.5158C622.63 79.6434 622.982 80.7344 623.571 81.7C627.487 88.1292 620.129 95.4917 613.696 91.575C612.731 90.9871 611.64 90.6352 610.513 90.548C609.387 90.4608 608.255 90.6407 607.211 91.073C606.167 91.5054 605.239 92.1781 604.504 93.0364C603.769 93.8946 603.246 94.9143 602.979 96.0125C601.204 103.329 590.796 103.329 589.021 96.0125C588.755 94.9133 588.232 93.8926 587.497 93.0333C586.762 92.1741 585.834 91.5006 584.789 91.0677C583.744 90.6348 582.612 90.4548 581.484 90.5422C580.357 90.6296 579.266 90.9821 578.3 91.5708C571.871 95.4875 564.508 88.1292 568.425 81.6958C569.013 80.7306 569.365 79.6403 569.452 78.5134C569.539 77.3866 569.359 76.2551 568.927 75.2109C568.495 74.1667 567.822 73.2393 566.964 72.5039C566.105 71.7686 565.086 71.2462 563.987 70.9792C556.671 69.2042 556.671 58.7958 563.987 57.0208C565.087 56.7545 566.107 56.2324 566.967 55.497C567.826 54.7617 568.499 53.8338 568.932 52.7889C569.365 51.7441 569.545 50.6118 569.458 49.4842C569.37 48.3566 569.018 47.2656 568.429 46.3C564.512 39.8708 571.871 32.5083 578.304 36.425C582.454 38.9583 587.871 36.7167 589.021 31.9875Z" stroke="#6B7280" stroke-width="2" stroke-linecap="round" stroke-linejoin="round"/>
<path d="M608.5 64C608.5 67.3152 607.183 70.4946 604.839 72.8388C602.495 75.183 599.315 76.5 596 76.5C592.685 76.5 589.505 75.183 587.161 72.8388C584.817 70.4946 583.5 67.3152 583.5 64C583.5 60.6848 584.817 57.5054 587.161 55.1612C589.505 52.817 592.685 51.5 596 51.5C599.315 51.5 602.495 52.817 604.839 55.1612C607.183 57.5054 608.5 60.6848 608.5 64Z" stroke="#6B7280" stroke-width="2" stroke-linecap="round" stroke-linejoin="round"/>
<path d="M146.526 104.305C146.078 85.488 171.213 78.7533 180.233 95.2732C181.587 97.7551 183.509 99.8822 185.84 101.481C188.172 103.08 190.849 104.106 193.652 104.476C196.455 104.845 199.306 104.547 201.972 103.606C204.638 102.666 207.045 101.109 208.996 99.0621C221.987 85.4441 244.527 98.4492 239.232 116.519C238.437 119.23 238.292 122.091 238.811 124.868C239.329 127.646 240.496 130.262 242.216 132.503C243.935 134.745 246.16 136.55 248.708 137.77C251.257 138.99 254.057 139.592 256.882 139.526C275.699 139.078 282.433 164.213 265.913 173.233C263.431 174.587 261.304 176.509 259.705 178.84C258.106 181.172 257.08 183.849 256.711 186.652C256.342 189.455 256.639 192.306 257.58 194.972C258.521 197.638 260.078 200.045 262.124 201.996C275.742 214.987 262.737 237.527 244.668 232.232C241.957 231.437 239.096 231.292 236.318 231.811C233.541 232.329 230.925 233.496 228.683 235.216C226.441 236.935 224.637 239.16 223.417 241.708C222.196 244.257 221.595 247.057 221.66 249.882C222.108 268.699 196.974 275.433 187.953 258.913C186.599 256.431 184.678 254.304 182.346 252.705C180.014 251.106 177.338 250.08 174.535 249.711C171.732 249.342 168.881 249.639 166.214 250.58C163.548 251.521 161.142 253.078 159.191 255.124C146.2 268.742 123.659 255.737 128.955 237.668C129.75 234.956 129.894 232.096 129.376 229.318C128.857 226.541 127.691 223.925 125.971 221.683C124.251 219.441 122.027 217.637 119.478 216.417C116.93 215.196 114.13 214.595 111.305 214.66C92.488 215.108 85.7533 189.974 102.273 180.953C104.755 179.599 106.882 177.678 108.481 175.346C110.08 173.014 111.106 170.338 111.476 167.535C111.845 164.732 111.547 161.881 110.606 159.214C109.666 156.548 108.109 154.142 106.062 152.191C92.4441 139.2 105.449 116.659 123.519 121.955C135.179 125.387 146.809 116.469 146.526 104.305Z" stroke="#6B7280" stroke-width="2" stroke-linecap="round" stroke-linejoin="round"/>
<path d="M214.279 169.005C216.424 177.011 215.301 185.541 211.157 192.718C207.013 199.896 200.187 205.133 192.182 207.278C184.176 209.423 175.646 208.3 168.469 204.156C161.291 200.012 156.054 193.187 153.908 185.181C151.763 177.176 152.886 168.646 157.03 161.468C161.174 154.291 168 149.053 176.005 146.908C184.011 144.763 192.541 145.886 199.719 150.03C206.896 154.174 212.134 160.999 214.279 169.005Z" stroke="#6B7280" stroke-width="2" stroke-linecap="round" stroke-linejoin="round"/>
</g>
<defs>
<clipPath id="clip0_302_486">
<rect width="1280" height="700" fill="white"/>
</clipPath>
</defs>
</svg>
