<svg width="400" height="400" viewBox="0 0 400 400" fill="none" xmlns="http://www.w3.org/2000/svg">
<g clip-path="url(#clip0_34_107)">
<g filter="url(#filter0_i_34_107)">
<path d="M31.6987 163.577L74 139.155L116.301 163.577V212.423L74 236.845L31.6987 212.423V163.577Z" stroke="#E9E9E9" stroke-width="2"/>
<path d="M74.6987 89.5774L117 65.1547L159.301 89.5774V138.423L117 162.845L74.6987 138.423V89.5774Z" stroke="#E9E9E9" stroke-width="2"/>
<path d="M-11.3013 89.5774L31 65.1547L73.3013 89.5774V138.423L31 162.845L-11.3013 138.423V89.5774Z" stroke="#E9E9E9" stroke-width="2"/>
<path d="M117.699 163.577L160 139.155L202.301 163.577V212.423L160 236.845L117.699 212.423V163.577Z" stroke="#E9E9E9" stroke-width="2"/>
<path d="M160.699 89.5774L203 65.1547L245.301 89.5774V138.423L203 162.845L160.699 138.423V89.5774Z" stroke="#E9E9E9" stroke-width="2"/>
<path d="M202.699 162.577L245 138.155L287.301 162.577V211.423L245 235.845L202.699 211.423V162.577Z" stroke="#E9E9E9" stroke-width="2"/>
<path d="M-11.3013 236.577L31 212.155L73.3013 236.577V285.423L31 309.845L-11.3013 285.423V236.577Z" stroke="#E9E9E9" stroke-width="2"/>
<path d="M74.6987 236.577L117 212.155L159.301 236.577V285.423L117 309.845L74.6987 285.423V236.577Z" stroke="#E9E9E9" stroke-width="2"/>
<path d="M159.699 236.577L202 212.155L244.301 236.577V285.423L202 309.845L159.699 285.423V236.577Z" stroke="#E9E9E9" stroke-width="2"/>
<path d="M-53.3013 311.577L-11 287.155L31.3013 311.577V360.423L-11 384.845L-53.3013 360.423V311.577Z" stroke="#E9E9E9" stroke-width="2"/>
<path d="M32.6987 311.577L75 287.155L117.301 311.577V360.423L75 384.845L32.6987 360.423V311.577Z" stroke="#E9E9E9" stroke-width="2"/>
<path d="M117.699 311.577L160 287.155L202.301 311.577V360.423L160 384.845L117.699 360.423V311.577Z" stroke="#E9E9E9" stroke-width="2"/>
<path d="M287.699 162.577L330 138.155L372.301 162.577V211.423L330 235.845L287.699 211.423V162.577Z" stroke="#E9E9E9" stroke-width="2"/>
<path d="M244.699 236.577L287 212.155L329.301 236.577V285.423L287 309.845L244.699 285.423V236.577Z" stroke="#E9E9E9" stroke-width="2"/>
<path d="M202.699 311.577L245 287.155L287.301 311.577V360.423L245 384.845L202.699 360.423V311.577Z" stroke="#E9E9E9" stroke-width="2"/>
<path d="M373.699 162.577L416 138.155L458.301 162.577V211.423L416 235.845L373.699 211.423V162.577Z" stroke="#E9E9E9" stroke-width="2"/>
<path d="M330.699 236.577L373 212.155L415.301 236.577V285.423L373 309.845L330.699 285.423V236.577Z" stroke="#E9E9E9" stroke-width="2"/>
<path d="M288.699 311.577L331 287.155L373.301 311.577V360.423L331 384.845L288.699 360.423V311.577Z" stroke="#E9E9E9" stroke-width="2"/>
<path d="M330.699 88.5774L373 64.1547L415.301 88.5774V137.423L373 161.845L330.699 137.423V88.5774Z" stroke="#E9E9E9" stroke-width="2"/>
<path d="M373.699 15.5774L416 -8.8453L458.301 15.5774V64.4226L416 88.8453L373.699 64.4226V15.5774Z" stroke="#E9E9E9" stroke-width="2"/>
<path d="M373.699 311.577L416 287.155L458.301 311.577V360.423L416 384.845L373.699 360.423V311.577Z" stroke="#E9E9E9" stroke-width="2"/>
<path d="M288.699 13.5774L331 -10.8453L373.301 13.5774V62.4226L331 86.8453L288.699 62.4226V13.5774Z" stroke="#E9E9E9" stroke-width="2"/>
<path d="M246.699 88.5774L289 64.1547L331.301 88.5774V137.423L289 161.845L246.699 137.423V88.5774Z" stroke="#E9E9E9" stroke-width="2"/>
<path d="M31.6987 15.5774L74 -8.8453L116.301 15.5774V64.4226L74 88.8453L31.6987 64.4226V15.5774Z" stroke="#E9E9E9" stroke-width="2"/>
<path d="M117.699 15.5774L160 -8.8453L202.301 15.5774V64.4226L160 88.8453L117.699 64.4226V15.5774Z" stroke="#E9E9E9" stroke-width="2"/>
<path d="M202.699 15.5774L245 -8.8453L287.301 15.5774V64.4226L245 88.8453L202.699 64.4226V15.5774Z" stroke="#E9E9E9" stroke-width="2"/>
<path d="M-53.3013 15.5774L-11 -8.8453L31.3013 15.5774V64.4226L-11 88.8453L-53.3013 64.4226V15.5774Z" stroke="#E9E9E9" stroke-width="2"/>
<path d="M-10.3013 384.577L32 360.155L74.3013 384.577V433.423L32 457.845L-10.3013 433.423V384.577Z" stroke="#E9E9E9" stroke-width="2"/>
<path d="M74.6987 384.577L117 360.155L159.301 384.577V433.423L117 457.845L74.6987 433.423V384.577Z" stroke="#E9E9E9" stroke-width="2"/>
<path d="M160.699 384.577L203 360.155L245.301 384.577V433.423L203 457.845L160.699 433.423V384.577Z" stroke="#E9E9E9" stroke-width="2"/>
<path d="M246.699 384.577L289 360.155L331.301 384.577V433.423L289 457.845L246.699 433.423V384.577Z" stroke="#E9E9E9" stroke-width="2"/>
<path d="M331.699 384.577L374 360.155L416.301 384.577V433.423L374 457.845L331.699 433.423V384.577Z" stroke="#E9E9E9" stroke-width="2"/>
</g>
</g>
<defs>
<filter id="filter0_i_34_107" x="-97.3008" y="-12" width="598.602" height="475" filterUnits="userSpaceOnUse" color-interpolation-filters="sRGB">
<feFlood flood-opacity="0" result="BackgroundImageFix"/>
<feBlend mode="normal" in="SourceGraphic" in2="BackgroundImageFix" result="shape"/>
<feColorMatrix in="SourceAlpha" type="matrix" values="0 0 0 0 0 0 0 0 0 0 0 0 0 0 0 0 0 0 127 0" result="hardAlpha"/>
<feOffset dy="4"/>
<feGaussianBlur stdDeviation="2"/>
<feComposite in2="hardAlpha" operator="arithmetic" k2="-1" k3="1"/>
<feColorMatrix type="matrix" values="0 0 0 0 0 0 0 0 0 0 0 0 0 0 0 0 0 0 0.25 0"/>
<feBlend mode="normal" in2="shape" result="effect1_innerShadow_34_107"/>
</filter>
<clipPath id="clip0_34_107">
<rect width="400" height="400" fill="white"/>
</clipPath>
</defs>
</svg>
