<svg width="1920" height="960" viewBox="0 0 1920 960" fill="none" xmlns="http://www.w3.org/2000/svg">
<g clip-path="url(#clip0_429_3928)">
<rect width="1920" height="960" fill="#0D121C"/>
<g filter="url(#filter0_f_429_3928)">
<ellipse cx="959.124" cy="479.972" rx="207.622" ry="207.622" transform="rotate(-90 959.124 479.972)" fill="#2C682C"/>
</g>
<mask id="mask0_429_3928" style="mask-type:alpha" maskUnits="userSpaceOnUse" x="119" y="-22" width="1682" height="1004">
<rect x="119" y="-22" width="1682" height="1003.94" fill="url(#paint0_radial_429_3928)"/>
</mask>
<g mask="url(#mask0_429_3928)">
<path d="M1110.77 297.924L1169.97 263.743L1229.18 297.924V366.287L1169.97 400.468L1110.77 366.287V297.924Z" stroke="white" stroke-opacity="0.5" stroke-width="1.38322"/>
<path d="M1170.66 401.666L1229.87 367.484L1289.07 401.666V470.028L1229.87 504.21L1170.66 470.028V401.666Z" stroke="white" stroke-opacity="0.5" stroke-width="1.38322"/>
<path d="M1230.55 297.924L1289.76 263.743L1348.96 297.924V366.287L1289.76 400.468L1230.55 366.287V297.924Z" stroke="white" stroke-opacity="0.5" stroke-width="1.38322"/>
<path d="M1290.45 401.666L1349.65 367.484L1408.86 401.666V470.028L1349.65 504.21L1290.45 470.028V401.666Z" stroke="white" stroke-opacity="0.5" stroke-width="1.38322"/>
<path d="M1350.34 505.408L1409.54 471.226L1468.75 505.408V573.77L1409.54 607.951L1350.34 573.77V505.408Z" stroke="white" stroke-opacity="0.5" stroke-width="1.38322"/>
<path d="M1410.23 401.666L1469.44 367.484L1528.64 401.666V470.028L1469.44 504.21L1410.23 470.028V401.666Z" stroke="white" stroke-opacity="0.5" stroke-width="1.38322"/>
<path d="M931.088 401.666L990.292 367.484L1049.5 401.666V470.028L990.292 504.21L931.088 470.028V401.666Z" stroke="white" stroke-opacity="0.5" stroke-width="1.38322"/>
<path d="M990.981 505.408L1050.19 471.226L1109.39 505.408V573.77L1050.19 607.951L990.981 573.77V505.408Z" stroke="white" stroke-opacity="0.5" stroke-width="1.38322"/>
<path d="M1050.87 401.666L1110.08 367.484L1169.28 401.666V470.028L1110.08 504.21L1050.87 470.028V401.666Z" stroke="white" stroke-opacity="0.5" stroke-width="1.38322"/>
<path d="M1110.77 505.408L1169.97 471.226L1229.18 505.408V573.77L1169.97 607.951L1110.77 573.77V505.408Z" stroke="white" stroke-opacity="0.5" stroke-width="1.38322"/>
<path d="M1170.66 609.149L1229.87 574.968L1289.07 609.149V677.512L1229.87 711.693L1170.66 677.512V609.149Z" stroke="white" stroke-opacity="0.5" stroke-width="1.38322"/>
<path d="M1230.55 505.408L1289.76 471.226L1348.96 505.408V573.77L1289.76 607.951L1230.55 573.77V505.408Z" stroke="white" stroke-opacity="0.5" stroke-width="1.38322"/>
<path d="M1470.13 505.408L1529.33 471.226L1588.54 505.408V573.77L1529.33 607.951L1470.13 573.77V505.408Z" stroke="white" stroke-opacity="0.5" stroke-width="1.38322"/>
<path d="M1530.02 609.149L1589.22 574.968L1648.43 609.149V677.512L1589.22 711.693L1530.02 677.512V609.149Z" stroke="white" stroke-opacity="0.5" stroke-width="1.38322"/>
<path d="M1589.91 505.408L1649.12 471.226L1708.32 505.408V573.77L1649.12 607.951L1589.91 573.77V505.408Z" stroke="white" stroke-opacity="0.5" stroke-width="1.38322"/>
<path d="M1649.81 609.149L1709.01 574.968L1768.22 609.149V677.512L1709.01 711.693L1649.81 677.512V609.149Z" stroke="white" stroke-opacity="0.5" stroke-width="1.38322"/>
<path d="M1709.7 712.891L1768.9 678.71L1828.11 712.891V781.254L1768.9 815.435L1709.7 781.254V712.891Z" stroke="white" stroke-opacity="0.5" stroke-width="1.38322"/>
<path d="M1769.59 609.149L1828.8 574.968L1888 609.149V677.512L1828.8 711.693L1769.59 677.512V609.149Z" stroke="white" stroke-opacity="0.5" stroke-width="1.38322"/>
<path d="M1349.65 574.169L1409.55 608.75V677.911L1349.65 712.492L1289.76 677.911V608.75L1349.65 574.169Z" fill="white" fill-opacity="0.25"/>
<path d="M1290.45 609.149L1349.65 574.968L1408.86 609.149V677.512L1349.65 711.693L1290.45 677.512V609.149Z" stroke="white" stroke-opacity="0.5" stroke-width="1.38322"/>
<path d="M1350.34 712.891L1409.54 678.71L1468.75 712.891V781.254L1409.54 815.435L1350.34 781.254V712.891Z" stroke="white" stroke-opacity="0.5" stroke-width="1.38322"/>
<path d="M1410.23 609.149L1469.44 574.968L1528.64 609.149V677.512L1469.44 711.693L1410.23 677.512V609.149Z" stroke="white" stroke-opacity="0.5" stroke-width="1.38322"/>
<path d="M1470.13 712.891L1529.33 678.71L1588.54 712.891V781.254L1529.33 815.435L1470.13 781.254V712.891Z" stroke="white" stroke-opacity="0.5" stroke-width="1.38322"/>
<path d="M1530.02 816.633L1589.22 782.452L1648.43 816.633V884.995L1589.22 919.177L1530.02 884.995V816.633Z" stroke="white" stroke-opacity="0.5" stroke-width="1.38322"/>
<path d="M1589.91 712.891L1649.12 678.71L1708.32 712.891V781.254L1649.12 815.435L1589.91 781.254V712.891Z" stroke="white" stroke-opacity="0.5" stroke-width="1.38322"/>
<path d="M1470.13 90.4405L1529.33 56.2592L1588.54 90.4405V158.803L1529.33 192.984L1470.13 158.803V90.4405Z" stroke="white" stroke-opacity="0.5" stroke-width="1.38322"/>
<path d="M1530.02 194.182L1589.22 160.001L1648.43 194.182V262.545L1589.22 296.726L1530.02 262.545V194.182Z" stroke="white" stroke-opacity="0.5" stroke-width="1.38322"/>
<path d="M1589.91 90.4405L1649.12 56.2592L1708.32 90.4405V158.803L1649.12 192.984L1589.91 158.803V90.4405Z" stroke="white" stroke-opacity="0.5" stroke-width="1.38322"/>
<path d="M1649.81 194.182L1709.01 160.001L1768.22 194.182V262.545L1709.01 296.726L1649.81 262.545V194.182Z" stroke="white" stroke-opacity="0.5" stroke-width="1.38322"/>
<path d="M1709.7 297.924L1768.9 263.743L1828.11 297.924V366.287L1768.9 400.468L1709.7 366.287V297.924Z" stroke="white" stroke-opacity="0.5" stroke-width="1.38322"/>
<path d="M1769.59 194.182L1828.8 160.001L1888 194.182V262.545L1828.8 296.726L1769.59 262.545V194.182Z" stroke="white" stroke-opacity="0.5" stroke-width="1.38322"/>
<path d="M1290.45 194.182L1349.65 160.001L1408.86 194.182V262.545L1349.65 296.726L1290.45 262.545V194.182Z" stroke="white" stroke-opacity="0.5" stroke-width="1.38322"/>
<path d="M1350.34 297.924L1409.54 263.743L1468.75 297.924V366.287L1409.54 400.468L1350.34 366.287V297.924Z" stroke="white" stroke-opacity="0.5" stroke-width="1.38322"/>
<path d="M1410.23 194.182L1469.44 160.001L1528.64 194.182V262.545L1469.44 296.726L1410.23 262.545V194.182Z" stroke="white" stroke-opacity="0.5" stroke-width="1.38322"/>
<path d="M1470.13 297.924L1529.33 263.743L1588.54 297.924V366.287L1529.33 400.468L1470.13 366.287V297.924Z" stroke="white" stroke-opacity="0.5" stroke-width="1.38322"/>
<path d="M1530.02 401.666L1589.22 367.484L1648.43 401.666V470.028L1589.22 504.21L1530.02 470.028V401.666Z" stroke="white" stroke-opacity="0.5" stroke-width="1.38322"/>
<path d="M1589.91 297.924L1649.12 263.743L1708.32 297.924V366.287L1649.12 400.468L1589.91 366.287V297.924Z" stroke="white" stroke-opacity="0.5" stroke-width="1.38322"/>
<path d="M1649.81 401.666L1709.01 367.484L1768.22 401.666V470.028L1709.01 504.21L1649.81 470.028V401.666Z" stroke="white" stroke-opacity="0.5" stroke-width="1.38322"/>
<path d="M1709.7 505.408L1768.9 471.226L1828.11 505.408V573.77L1768.9 607.951L1709.7 573.77V505.408Z" stroke="white" stroke-opacity="0.5" stroke-width="1.38322"/>
<path d="M1769.59 401.666L1828.8 367.484L1888 401.666V470.028L1828.8 504.21L1769.59 470.028V401.666Z" stroke="white" stroke-opacity="0.5" stroke-width="1.38322"/>
<path d="M451.51 -13.3013L510.744 -47.4827L569.978 -13.3013V55.0611L510.744 89.2426L451.51 55.0611V-13.3013Z" stroke="white" stroke-opacity="0.5" stroke-width="1.38322"/>
<path d="M571.359 -13.3013L630.592 -47.4827L689.826 -13.3013V55.0611L630.592 89.2426L571.359 55.0611V-13.3013Z" stroke="white" stroke-opacity="0.5" stroke-width="1.38322"/>
<path d="M631.278 90.4406L690.511 56.2591L749.745 90.4406V158.803L690.511 192.984L631.278 158.803V90.4406Z" stroke="white" stroke-opacity="0.5" stroke-width="1.38322"/>
<path d="M691.205 -13.3013L750.439 -47.4827L809.672 -13.3013V55.0611L750.439 89.2426L691.205 55.0611V-13.3013Z" stroke="white" stroke-opacity="0.5" stroke-width="1.38322"/>
<path d="M211.816 -13.3013L271.05 -47.4827L330.284 -13.3013V55.0611L271.05 89.2426L211.816 55.0611V-13.3013Z" stroke="white" stroke-opacity="0.5" stroke-width="1.38322"/>
<path d="M271.739 90.4406L330.973 56.2591L390.207 90.4406V158.803L330.973 192.984L271.739 158.803V90.4406Z" stroke="white" stroke-opacity="0.5" stroke-width="1.38322"/>
<path d="M331.664 -13.3013L390.898 -47.4827L450.131 -13.3013V55.0611L390.898 89.2426L331.664 55.0611V-13.3013Z" stroke="white" stroke-opacity="0.5" stroke-width="1.38322"/>
<path d="M391.587 90.4406L450.821 56.2591L510.054 90.4406V158.803L450.821 192.984L391.587 158.803V90.4406Z" stroke="white" stroke-opacity="0.5" stroke-width="1.38322"/>
<path d="M451.51 194.182L510.744 160.001L569.978 194.182V262.545L510.744 296.726L451.51 262.545V194.182Z" stroke="white" stroke-opacity="0.5" stroke-width="1.38322"/>
<path d="M511.434 90.4406L570.668 56.2591L629.902 90.4406V158.803L570.668 192.984L511.434 158.803V90.4406Z" stroke="white" stroke-opacity="0.5" stroke-width="1.38322"/>
<path d="M751.126 90.4406L810.36 56.2591L869.594 90.4406V158.803L810.36 192.984L751.126 158.803V90.4406Z" stroke="white" stroke-opacity="0.5" stroke-width="1.38322"/>
<path d="M811.051 194.182L870.285 160.001L929.518 194.182V262.545L870.285 296.726L811.051 262.545V194.182Z" stroke="white" stroke-opacity="0.5" stroke-width="1.38322"/>
<path d="M870.975 90.4406L930.209 56.2591L989.443 90.4406V158.803L930.209 192.984L870.975 158.803V90.4406Z" stroke="white" stroke-opacity="0.5" stroke-width="1.38322"/>
<path d="M930.897 194.182L990.131 160.001L1049.36 194.182V262.545L990.131 296.726L930.897 262.545V194.182Z" stroke="white" stroke-opacity="0.5" stroke-width="1.38322"/>
<path d="M990.82 297.924L1050.05 263.743L1109.29 297.924V366.286L1050.05 400.468L990.82 366.286V297.924Z" stroke="white" stroke-opacity="0.5" stroke-width="1.38322"/>
<path d="M1050.74 194.182L1109.98 160.001L1169.21 194.182V262.545L1109.98 296.726L1050.74 262.545V194.182Z" stroke="white" stroke-opacity="0.5" stroke-width="1.38322"/>
<path d="M571.359 194.182L630.592 160.001L689.826 194.182V262.545L630.592 296.726L571.359 262.545V194.182Z" stroke="white" stroke-opacity="0.5" stroke-width="1.38322"/>
<path d="M631.278 297.924L690.511 263.743L749.745 297.924V366.286L690.511 400.468L631.278 366.286V297.924Z" stroke="white" stroke-opacity="0.5" stroke-width="1.38322"/>
<path d="M691.205 194.182L750.439 160.001L809.672 194.182V262.545L750.439 296.726L691.205 262.545V194.182Z" stroke="white" stroke-opacity="0.5" stroke-width="1.38322"/>
<path d="M751.126 297.924L810.36 263.743L869.594 297.924V366.286L810.36 400.468L751.126 366.286V297.924Z" stroke="white" stroke-opacity="0.5" stroke-width="1.38322"/>
<path d="M811.051 401.666L870.285 367.484L929.518 401.666V470.028L870.285 504.21L811.051 470.028V401.666Z" stroke="white" stroke-opacity="0.5" stroke-width="1.38322"/>
<path d="M930.209 262.944L990.134 297.525V366.686L930.209 401.266L870.284 366.686V297.525L930.209 262.944Z" fill="white" fill-opacity="0.25"/>
<path d="M870.975 297.924L930.209 263.743L989.443 297.924V366.286L930.209 400.468L870.975 366.286V297.924Z" stroke="white" stroke-opacity="0.5" stroke-width="1.38322"/>
<path d="M811.051 -13.3013L870.285 -47.4827L929.518 -13.3013V55.0611L870.285 89.2426L811.051 55.0611V-13.3013Z" stroke="white" stroke-opacity="0.5" stroke-width="1.38322"/>
<path d="M1170.59 -13.3013L1229.83 -47.4827L1289.06 -13.3013V55.0611L1229.83 89.2426L1170.59 55.0611V-13.3013Z" stroke="white" stroke-opacity="0.5" stroke-width="1.38322"/>
<path d="M1290.44 -13.3013L1349.67 -47.4827L1408.91 -13.3013V55.0611L1349.67 89.2426L1290.44 55.0611V-13.3013Z" stroke="white" stroke-opacity="0.5" stroke-width="1.38322"/>
<path d="M1409.6 55.4606L1469.52 90.0412V159.202L1409.6 193.783L1349.67 159.202V90.0412L1409.6 55.4606Z" fill="white" fill-opacity="0.25"/>
<path d="M1350.36 90.4406L1409.6 56.2591L1468.83 90.4406V158.803L1409.6 192.984L1350.36 158.803V90.4406Z" stroke="white" stroke-opacity="0.5" stroke-width="1.38322"/>
<path d="M1410.28 -13.3013L1469.52 -47.4827L1528.75 -13.3013V55.0611L1469.52 89.2426L1410.28 55.0611V-13.3013Z" stroke="white" stroke-opacity="0.5" stroke-width="1.38322"/>
<path d="M930.897 -13.3013L990.131 -47.4827L1049.36 -13.3013V55.0611L990.131 89.2426L930.897 55.0611V-13.3013Z" stroke="white" stroke-opacity="0.5" stroke-width="1.38322"/>
<path d="M990.82 90.4406L1050.05 56.2591L1109.29 90.4406V158.803L1050.05 192.984L990.82 158.803V90.4406Z" stroke="white" stroke-opacity="0.5" stroke-width="1.38322"/>
<path d="M1050.74 -13.3013L1109.98 -47.4827L1169.21 -13.3013V55.0611L1109.98 89.2426L1050.74 55.0611V-13.3013Z" stroke="white" stroke-opacity="0.5" stroke-width="1.38322"/>
<path d="M1110.67 90.4406L1169.9 56.2591L1229.14 90.4406V158.803L1169.9 192.984L1110.67 158.803V90.4406Z" stroke="white" stroke-opacity="0.5" stroke-width="1.38322"/>
<path d="M1170.59 194.182L1229.83 160.001L1289.06 194.182V262.545L1229.83 296.726L1170.59 262.545V194.182Z" stroke="white" stroke-opacity="0.5" stroke-width="1.38322"/>
<path d="M1230.51 90.4406L1289.75 56.2591L1348.98 90.4406V158.803L1289.75 192.984L1230.51 158.803V90.4406Z" stroke="white" stroke-opacity="0.5" stroke-width="1.38322"/>
<path d="M571.45 816.633L630.654 782.452L689.857 816.633V884.995L630.654 919.177L571.45 884.995V816.633Z" stroke="white" stroke-opacity="0.5" stroke-width="1.38322"/>
<path d="M631.343 920.375L690.547 886.193L749.751 920.375V988.737L690.547 1022.92L631.343 988.737V920.375Z" stroke="white" stroke-opacity="0.5" stroke-width="1.38322"/>
<path d="M691.237 816.633L750.44 782.452L809.644 816.633V884.995L750.44 919.177L691.237 884.995V816.633Z" stroke="white" stroke-opacity="0.5" stroke-width="1.38322"/>
<path d="M751.13 920.375L810.334 886.193L869.537 920.375V988.737L810.334 1022.92L751.13 988.737V920.375Z" stroke="white" stroke-opacity="0.5" stroke-width="1.38322"/>
<path d="M870.916 920.375L930.12 886.193L989.324 920.375V988.737L930.12 1022.92L870.916 988.737V920.375Z" stroke="white" stroke-opacity="0.5" stroke-width="1.38322"/>
<path d="M391.77 920.375L450.974 886.193L510.177 920.375V988.737L450.974 1022.92L391.77 988.737V920.375Z" stroke="white" stroke-opacity="0.5" stroke-width="1.38322"/>
<path d="M511.557 920.375L570.76 886.193L629.964 920.375V988.737L570.76 1022.92L511.557 988.737V920.375Z" stroke="white" stroke-opacity="0.5" stroke-width="1.38322"/>
<path d="M930.81 609.149L990.014 574.968L1049.22 609.149V677.512L990.014 711.693L930.81 677.512V609.149Z" stroke="white" stroke-opacity="0.5" stroke-width="1.38322"/>
<path d="M990.703 712.891L1049.91 678.71L1109.11 712.891V781.254L1049.91 815.435L990.703 781.254V712.891Z" stroke="white" stroke-opacity="0.5" stroke-width="1.38322"/>
<path d="M1050.6 609.149L1109.8 574.968L1169 609.149V677.512L1109.8 711.693L1050.6 677.512V609.149Z" stroke="white" stroke-opacity="0.5" stroke-width="1.38322"/>
<path d="M1110.49 712.891L1169.69 678.71L1228.9 712.891V781.254L1169.69 815.435L1110.49 781.254V712.891Z" stroke="white" stroke-opacity="0.5" stroke-width="1.38322"/>
<path d="M1170.38 816.633L1229.59 782.452L1288.79 816.633V884.995L1229.59 919.177L1170.38 884.995V816.633Z" stroke="white" stroke-opacity="0.5" stroke-width="1.38322"/>
<path d="M1230.28 712.891L1289.48 678.71L1348.68 712.891V781.254L1289.48 815.435L1230.28 781.254V712.891Z" stroke="white" stroke-opacity="0.5" stroke-width="1.38322"/>
<path d="M751.13 712.891L810.334 678.71L869.537 712.891V781.254L810.334 815.435L751.13 781.254V712.891Z" stroke="white" stroke-opacity="0.5" stroke-width="1.38322"/>
<path d="M811.023 816.633L870.227 782.452L929.431 816.633V884.995L870.227 919.177L811.023 884.995V816.633Z" stroke="white" stroke-opacity="0.5" stroke-width="1.38322"/>
<path d="M870.916 712.891L930.12 678.71L989.324 712.891V781.254L930.12 815.435L870.916 781.254V712.891Z" stroke="white" stroke-opacity="0.5" stroke-width="1.38322"/>
<path d="M930.81 816.633L990.014 782.452L1049.22 816.633V884.995L990.014 919.177L930.81 884.995V816.633Z" stroke="white" stroke-opacity="0.5" stroke-width="1.38322"/>
<path d="M990.703 920.375L1049.91 886.193L1109.11 920.375V988.737L1049.91 1022.92L990.703 988.737V920.375Z" stroke="white" stroke-opacity="0.5" stroke-width="1.38322"/>
<path d="M1050.6 816.633L1109.8 782.452L1169 816.633V884.995L1109.8 919.177L1050.6 884.995V816.633Z" stroke="white" stroke-opacity="0.5" stroke-width="1.38322"/>
<path d="M1290.17 816.633L1349.37 782.452L1408.58 816.633V884.995L1349.37 919.177L1290.17 884.995V816.633Z" stroke="white" stroke-opacity="0.5" stroke-width="1.38322"/>
<path d="M1350.06 920.375L1409.27 886.193L1468.47 920.375V988.737L1409.27 1022.92L1350.06 988.737V920.375Z" stroke="white" stroke-opacity="0.5" stroke-width="1.38322"/>
<path d="M1409.96 816.633L1469.16 782.452L1528.36 816.633V884.995L1469.16 919.177L1409.96 884.995V816.633Z" stroke="white" stroke-opacity="0.5" stroke-width="1.38322"/>
<path d="M1469.85 920.375L1529.05 886.193L1588.26 920.375V988.737L1529.05 1022.92L1469.85 988.737V920.375Z" stroke="white" stroke-opacity="0.5" stroke-width="1.38322"/>
<path d="M1589.64 920.375L1648.84 886.193L1708.04 920.375V988.737L1648.84 1022.92L1589.64 988.737V920.375Z" stroke="white" stroke-opacity="0.5" stroke-width="1.38322"/>
<path d="M1110.49 920.375L1169.69 886.193L1228.9 920.375V988.737L1169.69 1022.92L1110.49 988.737V920.375Z" stroke="white" stroke-opacity="0.5" stroke-width="1.38322"/>
<path d="M1230.28 920.375L1289.48 886.193L1348.68 920.375V988.737L1289.48 1022.92L1230.28 988.737V920.375Z" stroke="white" stroke-opacity="0.5" stroke-width="1.38322"/>
<path d="M32.0405 505.408L91.2743 471.226L150.508 505.408V573.77L91.2743 607.952L32.0405 573.77V505.408Z" stroke="white" stroke-opacity="0.5" stroke-width="1.38322"/>
<path d="M91.9595 609.149L151.193 574.968L210.427 609.149V677.512L151.193 711.693L91.9595 677.512V609.149Z" stroke="white" stroke-opacity="0.5" stroke-width="1.38322"/>
<path d="M151.887 505.408L211.12 471.226L270.354 505.408V573.77L211.12 607.952L151.887 573.77V505.408Z" stroke="white" stroke-opacity="0.5" stroke-width="1.38322"/>
<path d="M211.808 609.149L271.042 574.968L330.276 609.149V677.512L271.042 711.693L211.808 677.512V609.149Z" stroke="white" stroke-opacity="0.5" stroke-width="1.38322"/>
<path d="M271.733 712.891L330.966 678.71L390.2 712.891V781.254L330.966 815.435L271.733 781.254V712.891Z" stroke="white" stroke-opacity="0.5" stroke-width="1.38322"/>
<path d="M331.657 609.149L390.891 574.968L450.125 609.149V677.512L390.891 711.693L331.657 677.512V609.149Z" stroke="white" stroke-opacity="0.5" stroke-width="1.38322"/>
<path d="M391.579 712.891L450.813 678.71L510.046 712.891V781.254L450.813 815.435L391.579 781.254V712.891Z" stroke="white" stroke-opacity="0.5" stroke-width="1.38322"/>
<path d="M451.502 816.633L510.736 782.451L569.969 816.633V884.995L510.736 919.177L451.502 884.995V816.633Z" stroke="white" stroke-opacity="0.5" stroke-width="1.38322"/>
<path d="M570.66 677.911L630.585 712.492V781.653L570.66 816.234L510.735 781.653V712.492L570.66 677.911Z" fill="white" fill-opacity="0.25"/>
<path d="M511.426 712.891L570.66 678.71L629.894 712.891V781.254L570.66 815.435L511.426 781.254V712.891Z" stroke="white" stroke-opacity="0.5" stroke-width="1.38322"/>
<path d="M32.0405 712.891L91.2743 678.71L150.508 712.891V781.254L91.2743 815.435L32.0405 781.254V712.891Z" stroke="white" stroke-opacity="0.5" stroke-width="1.38322"/>
<path d="M91.9595 816.633L151.193 782.451L210.427 816.633V884.995L151.193 919.177L91.9595 884.995V816.633Z" stroke="white" stroke-opacity="0.5" stroke-width="1.38322"/>
<path d="M151.887 712.891L211.12 678.71L270.354 712.891V781.254L211.12 815.435L151.887 781.254V712.891Z" stroke="white" stroke-opacity="0.5" stroke-width="1.38322"/>
<path d="M211.808 816.633L271.042 782.451L330.276 816.633V884.995L271.042 919.177L211.808 884.995V816.633Z" stroke="white" stroke-opacity="0.5" stroke-width="1.38322"/>
<path d="M271.733 920.375L330.966 886.193L390.2 920.375V988.737L330.966 1022.92L271.733 988.737V920.375Z" stroke="white" stroke-opacity="0.5" stroke-width="1.38322"/>
<path d="M331.657 816.633L390.891 782.451L450.125 816.633V884.995L390.891 919.177L331.657 884.995V816.633Z" stroke="white" stroke-opacity="0.5" stroke-width="1.38322"/>
<path d="M271.042 159.202L330.968 193.783V262.944L271.042 297.525L211.117 262.944V193.783L271.042 159.202Z" fill="white" fill-opacity="0.25"/>
<path d="M211.808 194.182L271.042 160.001L330.276 194.182V262.545L271.042 296.726L211.808 262.545V194.182Z" stroke="white" stroke-opacity="0.5" stroke-width="1.38322"/>
<path d="M271.733 297.924L330.966 263.743L390.2 297.924V366.286L330.966 400.468L271.733 366.286V297.924Z" stroke="white" stroke-opacity="0.5" stroke-width="1.38322"/>
<path d="M331.657 194.182L390.891 160.001L450.125 194.182V262.545L390.891 296.726L331.657 262.545V194.182Z" stroke="white" stroke-opacity="0.5" stroke-width="1.38322"/>
<path d="M391.579 297.924L450.813 263.743L510.046 297.924V366.286L450.813 400.468L391.579 366.286V297.924Z" stroke="white" stroke-opacity="0.5" stroke-width="1.38322"/>
<path d="M451.502 401.666L510.736 367.484L569.969 401.666V470.028L510.736 504.21L451.502 470.028V401.666Z" stroke="white" stroke-opacity="0.5" stroke-width="1.38322"/>
<path d="M511.426 297.924L570.66 263.743L629.894 297.924V366.286L570.66 400.468L511.426 366.286V297.924Z" stroke="white" stroke-opacity="0.5" stroke-width="1.38322"/>
<path d="M32.0405 297.924L91.2743 263.743L150.508 297.924V366.286L91.2743 400.468L32.0405 366.286V297.924Z" stroke="white" stroke-opacity="0.5" stroke-width="1.38322"/>
<path d="M91.9595 401.666L151.193 367.484L210.427 401.666V470.028L151.193 504.21L91.9595 470.028V401.666Z" stroke="white" stroke-opacity="0.5" stroke-width="1.38322"/>
<path d="M151.887 297.924L211.12 263.743L270.354 297.924V366.286L211.12 400.468L151.887 366.286V297.924Z" stroke="white" stroke-opacity="0.5" stroke-width="1.38322"/>
<path d="M211.808 401.666L271.042 367.484L330.276 401.666V470.028L271.042 504.21L211.808 470.028V401.666Z" stroke="white" stroke-opacity="0.5" stroke-width="1.38322"/>
<path d="M271.733 505.408L330.966 471.226L390.2 505.408V573.77L330.966 607.952L271.733 573.77V505.408Z" stroke="white" stroke-opacity="0.5" stroke-width="1.38322"/>
<path d="M331.657 401.666L390.891 367.484L450.125 401.666V470.028L390.891 504.21L331.657 470.028V401.666Z" stroke="white" stroke-opacity="0.5" stroke-width="1.38322"/>
<path d="M571.351 401.666L630.584 367.484L689.818 401.666V470.028L630.584 504.21L571.351 470.028V401.666Z" stroke="white" stroke-opacity="0.5" stroke-width="1.38322"/>
<path d="M631.275 505.408L690.509 471.226L749.743 505.408V573.77L690.509 607.952L631.275 573.77V505.408Z" stroke="white" stroke-opacity="0.5" stroke-width="1.38322"/>
<path d="M691.195 401.666L750.429 367.484L809.663 401.666V470.028L750.429 504.21L691.195 470.028V401.666Z" stroke="white" stroke-opacity="0.5" stroke-width="1.38322"/>
<path d="M751.121 505.408L810.355 471.226L869.589 505.408V573.77L810.355 607.952L751.121 573.77V505.408Z" stroke="white" stroke-opacity="0.5" stroke-width="1.38322"/>
<path d="M811.045 609.149L870.279 574.968L929.513 609.149V677.512L870.279 711.693L811.045 677.512V609.149Z" stroke="white" stroke-opacity="0.5" stroke-width="1.38322"/>
<path d="M870.966 505.408L930.2 471.226L989.433 505.408V573.77L930.2 607.952L870.966 573.77V505.408Z" stroke="white" stroke-opacity="0.5" stroke-width="1.38322"/>
<path d="M391.579 505.408L450.813 471.226L510.046 505.408V573.77L450.813 607.952L391.579 573.77V505.408Z" stroke="white" stroke-opacity="0.5" stroke-width="1.38322"/>
<path d="M451.502 609.149L510.736 574.968L569.969 609.149V677.512L510.736 711.693L451.502 677.512V609.149Z" stroke="white" stroke-opacity="0.5" stroke-width="1.38322"/>
<path d="M511.426 505.408L570.66 471.226L629.894 505.408V573.77L570.66 607.952L511.426 573.77V505.408Z" stroke="white" stroke-opacity="0.5" stroke-width="1.38322"/>
<path d="M571.351 609.149L630.584 574.968L689.818 609.149V677.512L630.584 711.693L571.351 677.512V609.149Z" stroke="white" stroke-opacity="0.5" stroke-width="1.38322"/>
<path d="M631.275 712.891L690.509 678.71L749.743 712.891V781.254L690.509 815.435L631.275 781.254V712.891Z" stroke="white" stroke-opacity="0.5" stroke-width="1.38322"/>
<path d="M691.195 609.149L750.429 574.968L809.663 609.149V677.512L750.429 711.693L691.195 677.512V609.149Z" stroke="white" stroke-opacity="0.5" stroke-width="1.38322"/>
</g>
<g clip-path="url(#clip1_429_3928)">
<path d="M959.619 439.5C958.534 439.5 957.522 439.211 956.581 438.704L946.961 432.988C945.514 432.193 946.238 431.903 946.672 431.758C948.625 431.107 948.986 430.963 951.012 429.805C951.229 429.66 951.518 429.733 951.735 429.877L959.113 434.291C959.402 434.435 959.764 434.435 959.981 434.291L988.842 417.577C989.131 417.433 989.276 417.143 989.276 416.782V383.428C989.276 383.066 989.131 382.776 988.842 382.632L959.981 365.991C959.692 365.846 959.33 365.846 959.113 365.991L930.252 382.632C929.963 382.776 929.818 383.138 929.818 383.428V416.782C929.818 417.071 929.963 417.433 930.252 417.577L938.137 422.136C942.404 424.306 945.08 421.774 945.08 419.242V386.322C945.08 385.888 945.442 385.454 945.948 385.454H949.637C950.071 385.454 950.505 385.815 950.505 386.322V419.242C950.505 424.957 947.395 428.285 941.97 428.285C940.307 428.285 939.005 428.285 935.316 426.477L927.721 422.136C925.84 421.05 924.683 419.025 924.683 416.854V383.5C924.683 381.33 925.84 379.304 927.721 378.218L956.581 361.505C958.39 360.492 960.849 360.492 962.657 361.505L991.518 378.218C993.399 379.304 994.556 381.33 994.556 383.5V416.854C994.556 419.025 993.399 421.05 991.518 422.136L962.657 438.849C961.789 439.211 960.704 439.5 959.619 439.5Z" fill="white"/>
<path d="M968.588 416.565C955.93 416.565 953.326 410.777 953.326 405.857C953.326 405.423 953.688 404.988 954.194 404.988H957.956C958.39 404.988 958.751 405.278 958.751 405.712C959.33 409.546 960.993 411.428 968.661 411.428C974.737 411.428 977.341 410.053 977.341 406.797C977.341 404.916 976.617 403.541 967.142 402.601C959.258 401.805 954.339 400.068 954.339 393.774C954.339 387.913 959.257 384.441 967.503 384.441C976.762 384.441 981.319 387.624 981.898 394.57C981.898 394.787 981.825 395.004 981.681 395.221C981.536 395.366 981.319 395.51 981.102 395.51H977.268C976.907 395.51 976.545 395.221 976.473 394.859C975.605 390.88 973.362 389.577 967.431 389.577C960.776 389.577 959.981 391.893 959.981 393.629C959.981 395.727 960.921 396.378 969.89 397.536C978.787 398.694 982.983 400.358 982.983 406.58C982.983 412.947 977.702 416.565 968.588 416.565Z" fill="white"/>
</g>
<path d="M753.234 535.906C759.203 535.906 763.781 537.406 766.969 540.406C770.188 543.406 771.797 548.219 771.797 554.844V588.5H762.469V556.109C762.469 551.984 761.562 548.891 759.75 546.828C757.938 544.734 755.156 543.688 751.406 543.688C746.062 543.688 742.312 545.266 740.156 548.422C738.031 551.578 736.969 556.156 736.969 562.156V588.5H727.547V536.844H735L736.359 544.109H736.875C737.969 542.297 739.359 540.781 741.047 539.562C742.734 538.344 744.609 537.438 746.672 536.844C748.766 536.219 750.953 535.906 753.234 535.906ZM832.688 562.578C832.688 566.828 832.125 570.625 831 573.969C829.906 577.281 828.297 580.094 826.172 582.406C824.078 584.688 821.547 586.438 818.578 587.656C815.609 588.844 812.25 589.438 808.5 589.438C805 589.438 801.781 588.844 798.844 587.656C795.938 586.438 793.422 584.688 791.297 582.406C789.172 580.094 787.531 577.281 786.375 573.969C785.219 570.625 784.641 566.828 784.641 562.578C784.641 556.922 785.609 552.109 787.547 548.141C789.484 544.141 792.25 541.109 795.844 539.047C799.469 536.953 803.781 535.906 808.781 535.906C813.531 535.906 817.703 536.953 821.297 539.047C824.891 541.141 827.688 544.172 829.688 548.141C831.688 552.109 832.688 556.922 832.688 562.578ZM794.297 562.578C794.297 566.547 794.797 569.969 795.797 572.844C796.828 575.688 798.391 577.875 800.484 579.406C802.609 580.938 805.344 581.703 808.688 581.703C811.969 581.703 814.672 580.938 816.797 579.406C818.922 577.875 820.484 575.688 821.484 572.844C822.484 569.969 822.984 566.547 822.984 562.578C822.984 558.641 822.484 555.266 821.484 552.453C820.484 549.641 818.922 547.484 816.797 545.984C814.703 544.484 811.969 543.734 808.594 543.734C803.656 543.734 800.031 545.391 797.719 548.703C795.438 551.984 794.297 556.609 794.297 562.578ZM863.625 589.438C857.312 589.438 852.266 587.203 848.484 582.734C844.734 578.266 842.859 571.641 842.859 562.859C842.859 553.984 844.766 547.281 848.578 542.75C852.422 538.188 857.516 535.906 863.859 535.906C866.516 535.906 868.844 536.266 870.844 536.984C872.844 537.703 874.562 538.656 876 539.844C877.469 541.031 878.688 542.375 879.656 543.875H880.219C880.062 542.906 879.906 541.547 879.75 539.797C879.594 538.047 879.516 536.516 879.516 535.203V515.562H888.938V588.5H881.484L879.938 581.328H879.516C878.578 582.828 877.375 584.203 875.906 585.453C874.469 586.672 872.734 587.641 870.703 588.359C868.703 589.078 866.344 589.438 863.625 589.438ZM865.828 581.75C870.922 581.75 874.516 580.281 876.609 577.344C878.734 574.406 879.812 570.047 879.844 564.266V562.812C879.844 556.656 878.828 551.938 876.797 548.656C874.797 545.344 871.109 543.688 865.734 543.688C861.359 543.688 858.062 545.406 855.844 548.844C853.625 552.25 852.516 556.984 852.516 563.047C852.516 569.047 853.625 573.672 855.844 576.922C858.062 580.141 861.391 581.75 865.828 581.75ZM925.266 535.906C929.766 535.906 933.625 536.875 936.844 538.812C940.062 540.719 942.531 543.422 944.25 546.922C945.969 550.422 946.828 554.547 946.828 559.297V564.641H911.766C911.859 570.172 913.281 574.422 916.031 577.391C918.781 580.328 922.641 581.797 927.609 581.797C930.891 581.797 933.812 581.484 936.375 580.859C938.938 580.234 941.594 579.312 944.344 578.094V586.016C941.75 587.203 939.141 588.062 936.516 588.594C933.922 589.156 930.812 589.438 927.188 589.438C922.188 589.438 917.797 588.438 914.016 586.438C910.266 584.438 907.344 581.484 905.25 577.578C903.156 573.641 902.109 568.797 902.109 563.047C902.109 557.359 903.062 552.5 904.969 548.469C906.875 544.406 909.562 541.297 913.031 539.141C916.5 536.984 920.578 535.906 925.266 535.906ZM925.219 543.219C921.406 543.219 918.344 544.469 916.031 546.969C913.719 549.438 912.359 552.984 911.953 557.609H937.359C937.328 554.766 936.875 552.266 936 550.109C935.125 547.953 933.797 546.266 932.016 545.047C930.266 543.828 928 543.219 925.219 543.219ZM954 611.562C952.406 611.562 950.953 611.438 949.641 611.188C948.297 610.969 947.141 610.703 946.172 610.391V602.844C947.203 603.156 948.219 603.391 949.219 603.547C950.219 603.703 951.344 603.781 952.594 603.781C954.688 603.781 956.391 603.203 957.703 602.047C959.016 600.891 959.672 598.75 959.672 595.625V536.844H969.094V596C969.094 599.125 968.562 601.859 967.5 604.203C966.469 606.547 964.828 608.359 962.578 609.641C960.359 610.922 957.5 611.562 954 611.562ZM959.016 522.875C959.016 520.906 959.531 519.484 960.562 518.609C961.625 517.734 962.922 517.297 964.453 517.297C965.953 517.297 967.234 517.734 968.297 518.609C969.391 519.484 969.938 520.906 969.938 522.875C969.938 524.844 969.391 526.281 968.297 527.188C967.234 528.062 965.953 528.5 964.453 528.5C962.922 528.5 961.625 528.062 960.562 527.188C959.531 526.281 959.016 524.844 959.016 522.875ZM1019.25 574.062C1019.25 577.406 1018.42 580.234 1016.77 582.547C1015.14 584.828 1012.77 586.547 1009.64 587.703C1006.52 588.859 1002.77 589.438 998.391 589.438C994.766 589.438 991.641 589.156 989.016 588.594C986.391 588.062 984.016 587.281 981.891 586.25V577.906C984.172 579 986.812 579.969 989.812 580.812C992.812 581.656 995.75 582.078 998.625 582.078C1002.66 582.078 1005.56 581.438 1007.34 580.156C1009.16 578.875 1010.06 577.141 1010.06 574.953C1010.06 573.672 1009.7 572.547 1008.98 571.578C1008.27 570.578 1007 569.594 1005.19 568.625C1003.41 567.625 1000.84 566.484 997.5 565.203C994.219 563.922 991.406 562.641 989.062 561.359C986.75 560.078 984.984 558.531 983.766 556.719C982.547 554.906 981.938 552.562 981.938 549.688C981.938 545.219 983.719 541.812 987.281 539.469C990.875 537.094 995.609 535.906 1001.48 535.906C1004.61 535.906 1007.55 536.219 1010.3 536.844C1013.08 537.469 1015.73 538.344 1018.27 539.469L1015.22 546.734C1012.97 545.766 1010.66 544.969 1008.28 544.344C1005.91 543.688 1003.48 543.359 1001.02 543.359C997.797 543.359 995.328 543.875 993.609 544.906C991.922 545.938 991.078 547.359 991.078 549.172C991.078 550.578 991.469 551.75 992.25 552.688C993.062 553.625 994.406 554.547 996.281 555.453C998.156 556.328 1000.69 557.375 1003.88 558.594C1007.03 559.781 1009.75 561.016 1012.03 562.297C1014.34 563.578 1016.12 565.141 1017.38 566.984C1018.62 568.828 1019.25 571.188 1019.25 574.062ZM1030.12 583.156C1030.12 580.781 1030.72 579.109 1031.91 578.141C1033.12 577.141 1034.59 576.641 1036.31 576.641C1038.06 576.641 1039.55 577.141 1040.77 578.141C1041.98 579.109 1042.59 580.781 1042.59 583.156C1042.59 585.469 1041.98 587.156 1040.77 588.219C1039.55 589.281 1038.06 589.812 1036.31 589.812C1034.59 589.812 1033.12 589.281 1031.91 588.219C1030.72 587.156 1030.12 585.469 1030.12 583.156ZM1102.41 562.578C1102.41 566.828 1101.84 570.625 1100.72 573.969C1099.62 577.281 1098.02 580.094 1095.89 582.406C1093.8 584.688 1091.27 586.438 1088.3 587.656C1085.33 588.844 1081.97 589.438 1078.22 589.438C1074.72 589.438 1071.5 588.844 1068.56 587.656C1065.66 586.438 1063.14 584.688 1061.02 582.406C1058.89 580.094 1057.25 577.281 1056.09 573.969C1054.94 570.625 1054.36 566.828 1054.36 562.578C1054.36 556.922 1055.33 552.109 1057.27 548.141C1059.2 544.141 1061.97 541.109 1065.56 539.047C1069.19 536.953 1073.5 535.906 1078.5 535.906C1083.25 535.906 1087.42 536.953 1091.02 539.047C1094.61 541.141 1097.41 544.172 1099.41 548.141C1101.41 552.109 1102.41 556.922 1102.41 562.578ZM1064.02 562.578C1064.02 566.547 1064.52 569.969 1065.52 572.844C1066.55 575.688 1068.11 577.875 1070.2 579.406C1072.33 580.938 1075.06 581.703 1078.41 581.703C1081.69 581.703 1084.39 580.938 1086.52 579.406C1088.64 577.875 1090.2 575.688 1091.2 572.844C1092.2 569.969 1092.7 566.547 1092.7 562.578C1092.7 558.641 1092.2 555.266 1091.2 552.453C1090.2 549.641 1088.64 547.484 1086.52 545.984C1084.42 544.484 1081.69 543.734 1078.31 543.734C1073.38 543.734 1069.75 545.391 1067.44 548.703C1065.16 551.984 1064.02 556.609 1064.02 562.578ZM1140.33 535.906C1141.27 535.906 1142.28 535.969 1143.38 536.094C1144.47 536.188 1145.41 536.312 1146.19 536.469L1145.2 545.234C1144.45 545.047 1143.58 544.891 1142.58 544.766C1141.61 544.641 1140.7 544.578 1139.86 544.578C1137.86 544.578 1135.95 544.953 1134.14 545.703C1132.33 546.453 1130.73 547.547 1129.36 548.984C1127.98 550.391 1126.91 552.125 1126.12 554.188C1125.34 556.219 1124.95 558.547 1124.95 561.172V588.5H1115.48V536.844H1123.08L1124.2 546.172H1124.62C1125.69 544.297 1126.97 542.578 1128.47 541.016C1130 539.453 1131.75 538.219 1133.72 537.312C1135.72 536.375 1137.92 535.906 1140.33 535.906ZM1170.42 611.562C1163.52 611.562 1158.2 610.297 1154.48 607.766C1150.8 605.234 1148.95 601.703 1148.95 597.172C1148.95 593.953 1149.97 591.219 1152 588.969C1154.03 586.75 1156.88 585.25 1160.53 584.469C1159.16 583.844 1157.97 582.891 1156.97 581.609C1156 580.297 1155.52 578.828 1155.52 577.203C1155.52 575.297 1156.05 573.656 1157.11 572.281C1158.2 570.875 1159.83 569.516 1161.98 568.203C1159.27 567.078 1157.08 565.219 1155.42 562.625C1153.77 560 1152.94 556.938 1152.94 553.438C1152.94 549.719 1153.72 546.547 1155.28 543.922C1156.88 541.297 1159.16 539.297 1162.12 537.922C1165.09 536.547 1168.7 535.859 1172.95 535.859C1173.89 535.859 1174.86 535.906 1175.86 536C1176.86 536.062 1177.81 536.172 1178.72 536.328C1179.62 536.484 1180.36 536.641 1180.92 536.797H1198.73V542.375L1189.55 543.781C1190.45 544.969 1191.19 546.375 1191.75 548C1192.31 549.625 1192.59 551.406 1192.59 553.344C1192.59 558.594 1190.8 562.75 1187.2 565.812C1183.64 568.844 1178.7 570.359 1172.39 570.359C1170.92 570.328 1169.44 570.203 1167.94 569.984C1166.59 570.766 1165.58 571.625 1164.89 572.562C1164.2 573.469 1163.86 574.516 1163.86 575.703C1163.86 576.609 1164.16 577.344 1164.75 577.906C1165.38 578.469 1166.27 578.891 1167.42 579.172C1168.58 579.422 1169.98 579.547 1171.64 579.547H1180.64C1186.27 579.547 1190.58 580.734 1193.58 583.109C1196.58 585.484 1198.08 588.953 1198.08 593.516C1198.08 599.297 1195.7 603.75 1190.95 606.875C1186.2 610 1179.36 611.562 1170.42 611.562ZM1170.75 604.672C1174.78 604.672 1178.14 604.266 1180.83 603.453C1183.55 602.641 1185.59 601.484 1186.97 599.984C1188.34 598.484 1189.03 596.703 1189.03 594.641C1189.03 592.766 1188.58 591.328 1187.67 590.328C1186.8 589.359 1185.48 588.703 1183.73 588.359C1181.98 588.016 1179.83 587.844 1177.27 587.844H1168.73C1166.55 587.844 1164.64 588.188 1163.02 588.875C1161.39 589.562 1160.12 590.547 1159.22 591.828C1158.31 593.141 1157.86 594.75 1157.86 596.656C1157.86 599.25 1158.97 601.234 1161.19 602.609C1163.44 603.984 1166.62 604.672 1170.75 604.672ZM1172.81 563.938C1176.28 563.938 1178.88 563.031 1180.59 561.219C1182.31 559.375 1183.17 556.75 1183.17 553.344C1183.17 549.688 1182.3 546.938 1180.55 545.094C1178.8 543.25 1176.2 542.328 1172.77 542.328C1169.42 542.328 1166.86 543.281 1165.08 545.188C1163.33 547.062 1162.45 549.812 1162.45 553.438C1162.45 556.781 1163.34 559.375 1165.12 561.219C1166.91 563.031 1169.47 563.938 1172.81 563.938Z" fill="white"/>
</g>
<defs>
<filter id="filter0_f_429_3928" x="401.085" y="-78.0666" width="1116.08" height="1116.08" filterUnits="userSpaceOnUse" color-interpolation-filters="sRGB">
<feFlood flood-opacity="0" result="BackgroundImageFix"/>
<feBlend mode="normal" in="SourceGraphic" in2="BackgroundImageFix" result="shape"/>
<feGaussianBlur stdDeviation="175.208" result="effect1_foregroundBlur_429_3928"/>
</filter>
<radialGradient id="paint0_radial_429_3928" cx="0" cy="0" r="1" gradientUnits="userSpaceOnUse" gradientTransform="translate(960 479.972) rotate(90) scale(618.818 1036.76)">
<stop stop-color="#D9D9D9" stop-opacity="0.2"/>
<stop offset="0.802083" stop-color="#D9D9D9" stop-opacity="0"/>
</radialGradient>
<clipPath id="clip0_429_3928">
<rect width="1920" height="960" fill="white"/>
</clipPath>
<clipPath id="clip1_429_3928">
<rect width="71" height="79" fill="white" transform="translate(924.5 360.5)"/>
</clipPath>
</defs>
</svg>
