<svg width="160" height="90" viewBox="0 0 160 90" fill="none" xmlns="http://www.w3.org/2000/svg">
<g clip-path="url(#clip0_59_114)">
<rect width="160" height="90" fill="white"/>
<g filter="url(#filter0_i_59_114)">
<path d="M79.0192 -33.4227L104 -47.8453L128.981 -33.4227V-4.57735L104 9.8453L79.0192 -4.57735V-33.4227Z" stroke="#E9E9E9" stroke-width="2"/>
</g>
<g filter="url(#filter1_i_59_114)">
<path d="M-19.9808 -33.4227L5 -47.8453L29.9808 -33.4227V-4.57735L5 9.8453L-19.9808 -4.57735V-33.4227Z" stroke="#E9E9E9" stroke-width="2"/>
</g>
<g filter="url(#filter2_i_59_114)">
<path d="M30.0192 -33.4227L55 -47.8453L79.9808 -33.4227V-4.57735L55 9.8453L30.0192 -4.57735V-33.4227Z" stroke="#E9E9E9" stroke-width="2"/>
</g>
<g filter="url(#filter3_i_59_114)">
<path d="M132.019 -33.4227L157 -47.8453L181.981 -33.4227V-4.57735L157 9.8453L132.019 -4.57735V-33.4227Z" stroke="#E9E9E9" stroke-width="2"/>
</g>
<g filter="url(#filter4_i_59_114)">
<path d="M130.019 53.5773L155 39.1547L179.981 53.5773V82.4226L155 96.8453L130.019 82.4226V53.5773Z" stroke="#E9E9E9" stroke-width="2"/>
</g>
<g filter="url(#filter5_i_59_114)">
<path d="M156.019 10.5773L181 -3.8453L205.981 10.5773V39.4226L181 53.8453L156.019 39.4226V10.5773Z" stroke="#E9E9E9" stroke-width="2"/>
</g>
<g filter="url(#filter6_i_59_114)">
<path d="M-19.9808 53.5773L5 39.1547L29.9808 53.5773V82.4226L5 96.8453L-19.9808 82.4226V53.5773Z" stroke="#E9E9E9" stroke-width="2"/>
</g>
<g filter="url(#filter7_i_59_114)">
<path d="M-44.9808 9.57735L-20 -4.8453L4.98076 9.57735V38.4226L-20 52.8453L-44.9808 38.4226V9.57735Z" stroke="#E9E9E9" stroke-width="2"/>
</g>
<g filter="url(#filter8_i_59_114)">
<path d="M80 -5L105.981 10V40L80 55L54.0192 40V10L80 -5Z" fill="#636363"/>
</g>
<g filter="url(#filter9_i_59_114)">
<path d="M80.0192 53.5773L105 39.1547L129.981 53.5773V82.4226L105 96.8453L80.0192 82.4226V53.5773Z" stroke="#E9E9E9" stroke-width="2"/>
</g>
<g filter="url(#filter10_i_59_114)">
<path d="M29.0192 53.5773L54 39.1547L78.9808 53.5773V82.4226L54 96.8453L29.0192 82.4226V53.5773Z" stroke="#E9E9E9" stroke-width="2"/>
</g>
<g filter="url(#filter11_i_59_114)">
<path d="M5.01924 9.57735L30 -4.8453L54.9808 9.57735V38.4226L30 52.8453L5.01924 38.4226V9.57735Z" stroke="#E9E9E9" stroke-width="2"/>
</g>
<g filter="url(#filter12_i_59_114)">
<path d="M30.0192 -33.4227L55 -47.8453L79.9808 -33.4227V-4.57735L55 9.8453L30.0192 -4.57735V-33.4227Z" stroke="#E9E9E9" stroke-width="2"/>
</g>
<g filter="url(#filter13_i_59_114)">
<path d="M105.019 9.57735L130 -4.8453L154.981 9.57735V38.4226L130 52.8453L105.019 38.4226V9.57735Z" stroke="#E9E9E9" stroke-width="2"/>
</g>
<g filter="url(#filter14_i_59_114)">
<path d="M79.0192 -33.4227L104 -47.8453L128.981 -33.4227V-4.57735L104 9.8453L79.0192 -4.57735V-33.4227Z" stroke="#E9E9E9" stroke-width="2"/>
</g>
<g filter="url(#filter15_d_59_114)">
<circle cx="80" cy="25" r="16" fill="white"/>
<path d="M78.9521 9.00861C78.8833 9.01487 78.6643 9.03676 78.4673 9.0524C73.9222 9.46211 69.6649 11.9141 66.9685 15.6829C65.4671 17.7784 64.5067 20.1554 64.1439 22.6731C64.0156 23.5519 64 23.8115 64 25.0031C64 26.1947 64.0156 26.4543 64.1439 27.3332C65.0135 33.3413 69.2895 38.3892 75.089 40.2595C76.1275 40.5942 77.2223 40.8225 78.4673 40.9601C78.9521 41.0133 81.0479 41.0133 81.5327 40.9601C83.6817 40.7224 85.5022 40.1907 87.2978 39.2743C87.573 39.1336 87.6262 39.0961 87.5887 39.0648C87.5636 39.046 86.3906 37.4729 84.983 35.5713L82.4242 32.1153L79.218 27.3707C77.4538 24.7623 76.0023 22.6293 75.9898 22.6293C75.9773 22.6262 75.9648 24.7342 75.9586 27.3082C75.9492 31.815 75.946 31.9964 75.8897 32.1028C75.8084 32.256 75.7458 32.3186 75.6145 32.3874C75.5144 32.4374 75.4268 32.4468 74.9544 32.4468H74.4133L74.2694 32.3561C74.1756 32.2967 74.1067 32.2185 74.0598 32.1278L73.9941 31.9871L74.0004 25.7162L74.0098 19.4423L74.1067 19.3203C74.1568 19.2546 74.2631 19.1702 74.3382 19.1295C74.4665 19.067 74.5165 19.0607 75.0577 19.0607C75.6958 19.0607 75.8022 19.0857 75.9679 19.2671C76.0149 19.3172 77.7509 21.9318 79.828 25.0813C81.905 28.2308 84.7453 32.5313 86.1404 34.6424L88.6741 38.4799L88.8023 38.3955C89.9378 37.6574 91.139 36.6065 92.0899 35.5119C94.1138 33.188 95.4182 30.3544 95.8561 27.3332C95.9844 26.4543 96 26.1947 96 25.0031C96 23.8115 95.9844 23.5519 95.8561 22.6731C94.9865 16.665 90.7105 11.617 84.911 9.74672C83.8882 9.4152 82.7996 9.18688 81.5797 9.04927C81.2794 9.01799 79.2117 8.98359 78.9521 9.00861ZM85.5022 18.6854C85.6524 18.7605 85.7744 18.9043 85.8182 19.0544C85.8432 19.1358 85.8495 20.8747 85.8432 24.7936L85.8338 30.417L84.8422 28.897L83.8475 27.377V23.2892C83.8475 20.6464 83.86 19.1608 83.8788 19.0889C83.9288 18.9137 84.0383 18.7761 84.1885 18.6948C84.3167 18.6291 84.3636 18.6228 84.8547 18.6228C85.3177 18.6228 85.399 18.6291 85.5022 18.6854Z" fill="black"/>
</g>
</g>
<defs>
<filter id="filter0_i_59_114" x="78.019" y="-49" width="51.9619" height="64" filterUnits="userSpaceOnUse" color-interpolation-filters="sRGB">
<feFlood flood-opacity="0" result="BackgroundImageFix"/>
<feBlend mode="normal" in="SourceGraphic" in2="BackgroundImageFix" result="shape"/>
<feColorMatrix in="SourceAlpha" type="matrix" values="0 0 0 0 0 0 0 0 0 0 0 0 0 0 0 0 0 0 127 0" result="hardAlpha"/>
<feOffset dy="4"/>
<feGaussianBlur stdDeviation="2"/>
<feComposite in2="hardAlpha" operator="arithmetic" k2="-1" k3="1"/>
<feColorMatrix type="matrix" values="0 0 0 0 0 0 0 0 0 0 0 0 0 0 0 0 0 0 0.25 0"/>
<feBlend mode="normal" in2="shape" result="effect1_innerShadow_59_114"/>
</filter>
<filter id="filter1_i_59_114" x="-20.981" y="-49" width="51.9619" height="64" filterUnits="userSpaceOnUse" color-interpolation-filters="sRGB">
<feFlood flood-opacity="0" result="BackgroundImageFix"/>
<feBlend mode="normal" in="SourceGraphic" in2="BackgroundImageFix" result="shape"/>
<feColorMatrix in="SourceAlpha" type="matrix" values="0 0 0 0 0 0 0 0 0 0 0 0 0 0 0 0 0 0 127 0" result="hardAlpha"/>
<feOffset dy="4"/>
<feGaussianBlur stdDeviation="2"/>
<feComposite in2="hardAlpha" operator="arithmetic" k2="-1" k3="1"/>
<feColorMatrix type="matrix" values="0 0 0 0 0 0 0 0 0 0 0 0 0 0 0 0 0 0 0.25 0"/>
<feBlend mode="normal" in2="shape" result="effect1_innerShadow_59_114"/>
</filter>
<filter id="filter2_i_59_114" x="29.019" y="-49" width="51.9619" height="64" filterUnits="userSpaceOnUse" color-interpolation-filters="sRGB">
<feFlood flood-opacity="0" result="BackgroundImageFix"/>
<feBlend mode="normal" in="SourceGraphic" in2="BackgroundImageFix" result="shape"/>
<feColorMatrix in="SourceAlpha" type="matrix" values="0 0 0 0 0 0 0 0 0 0 0 0 0 0 0 0 0 0 127 0" result="hardAlpha"/>
<feOffset dy="4"/>
<feGaussianBlur stdDeviation="2"/>
<feComposite in2="hardAlpha" operator="arithmetic" k2="-1" k3="1"/>
<feColorMatrix type="matrix" values="0 0 0 0 0 0 0 0 0 0 0 0 0 0 0 0 0 0 0.25 0"/>
<feBlend mode="normal" in2="shape" result="effect1_innerShadow_59_114"/>
</filter>
<filter id="filter3_i_59_114" x="131.019" y="-49" width="51.9619" height="64" filterUnits="userSpaceOnUse" color-interpolation-filters="sRGB">
<feFlood flood-opacity="0" result="BackgroundImageFix"/>
<feBlend mode="normal" in="SourceGraphic" in2="BackgroundImageFix" result="shape"/>
<feColorMatrix in="SourceAlpha" type="matrix" values="0 0 0 0 0 0 0 0 0 0 0 0 0 0 0 0 0 0 127 0" result="hardAlpha"/>
<feOffset dy="4"/>
<feGaussianBlur stdDeviation="2"/>
<feComposite in2="hardAlpha" operator="arithmetic" k2="-1" k3="1"/>
<feColorMatrix type="matrix" values="0 0 0 0 0 0 0 0 0 0 0 0 0 0 0 0 0 0 0.25 0"/>
<feBlend mode="normal" in2="shape" result="effect1_innerShadow_59_114"/>
</filter>
<filter id="filter4_i_59_114" x="129.019" y="38" width="51.9619" height="64" filterUnits="userSpaceOnUse" color-interpolation-filters="sRGB">
<feFlood flood-opacity="0" result="BackgroundImageFix"/>
<feBlend mode="normal" in="SourceGraphic" in2="BackgroundImageFix" result="shape"/>
<feColorMatrix in="SourceAlpha" type="matrix" values="0 0 0 0 0 0 0 0 0 0 0 0 0 0 0 0 0 0 127 0" result="hardAlpha"/>
<feOffset dy="4"/>
<feGaussianBlur stdDeviation="2"/>
<feComposite in2="hardAlpha" operator="arithmetic" k2="-1" k3="1"/>
<feColorMatrix type="matrix" values="0 0 0 0 0 0 0 0 0 0 0 0 0 0 0 0 0 0 0.25 0"/>
<feBlend mode="normal" in2="shape" result="effect1_innerShadow_59_114"/>
</filter>
<filter id="filter5_i_59_114" x="155.019" y="-5" width="51.9619" height="64" filterUnits="userSpaceOnUse" color-interpolation-filters="sRGB">
<feFlood flood-opacity="0" result="BackgroundImageFix"/>
<feBlend mode="normal" in="SourceGraphic" in2="BackgroundImageFix" result="shape"/>
<feColorMatrix in="SourceAlpha" type="matrix" values="0 0 0 0 0 0 0 0 0 0 0 0 0 0 0 0 0 0 127 0" result="hardAlpha"/>
<feOffset dy="4"/>
<feGaussianBlur stdDeviation="2"/>
<feComposite in2="hardAlpha" operator="arithmetic" k2="-1" k3="1"/>
<feColorMatrix type="matrix" values="0 0 0 0 0 0 0 0 0 0 0 0 0 0 0 0 0 0 0.25 0"/>
<feBlend mode="normal" in2="shape" result="effect1_innerShadow_59_114"/>
</filter>
<filter id="filter6_i_59_114" x="-20.981" y="38" width="51.9619" height="64" filterUnits="userSpaceOnUse" color-interpolation-filters="sRGB">
<feFlood flood-opacity="0" result="BackgroundImageFix"/>
<feBlend mode="normal" in="SourceGraphic" in2="BackgroundImageFix" result="shape"/>
<feColorMatrix in="SourceAlpha" type="matrix" values="0 0 0 0 0 0 0 0 0 0 0 0 0 0 0 0 0 0 127 0" result="hardAlpha"/>
<feOffset dy="4"/>
<feGaussianBlur stdDeviation="2"/>
<feComposite in2="hardAlpha" operator="arithmetic" k2="-1" k3="1"/>
<feColorMatrix type="matrix" values="0 0 0 0 0 0 0 0 0 0 0 0 0 0 0 0 0 0 0.25 0"/>
<feBlend mode="normal" in2="shape" result="effect1_innerShadow_59_114"/>
</filter>
<filter id="filter7_i_59_114" x="-45.981" y="-6" width="51.9619" height="64" filterUnits="userSpaceOnUse" color-interpolation-filters="sRGB">
<feFlood flood-opacity="0" result="BackgroundImageFix"/>
<feBlend mode="normal" in="SourceGraphic" in2="BackgroundImageFix" result="shape"/>
<feColorMatrix in="SourceAlpha" type="matrix" values="0 0 0 0 0 0 0 0 0 0 0 0 0 0 0 0 0 0 127 0" result="hardAlpha"/>
<feOffset dy="4"/>
<feGaussianBlur stdDeviation="2"/>
<feComposite in2="hardAlpha" operator="arithmetic" k2="-1" k3="1"/>
<feColorMatrix type="matrix" values="0 0 0 0 0 0 0 0 0 0 0 0 0 0 0 0 0 0 0.25 0"/>
<feBlend mode="normal" in2="shape" result="effect1_innerShadow_59_114"/>
</filter>
<filter id="filter8_i_59_114" x="54.019" y="-5" width="51.9619" height="64" filterUnits="userSpaceOnUse" color-interpolation-filters="sRGB">
<feFlood flood-opacity="0" result="BackgroundImageFix"/>
<feBlend mode="normal" in="SourceGraphic" in2="BackgroundImageFix" result="shape"/>
<feColorMatrix in="SourceAlpha" type="matrix" values="0 0 0 0 0 0 0 0 0 0 0 0 0 0 0 0 0 0 127 0" result="hardAlpha"/>
<feOffset dy="4"/>
<feGaussianBlur stdDeviation="2"/>
<feComposite in2="hardAlpha" operator="arithmetic" k2="-1" k3="1"/>
<feColorMatrix type="matrix" values="0 0 0 0 0 0 0 0 0 0 0 0 0 0 0 0 0 0 0.25 0"/>
<feBlend mode="normal" in2="shape" result="effect1_innerShadow_59_114"/>
</filter>
<filter id="filter9_i_59_114" x="79.019" y="38" width="51.9619" height="64" filterUnits="userSpaceOnUse" color-interpolation-filters="sRGB">
<feFlood flood-opacity="0" result="BackgroundImageFix"/>
<feBlend mode="normal" in="SourceGraphic" in2="BackgroundImageFix" result="shape"/>
<feColorMatrix in="SourceAlpha" type="matrix" values="0 0 0 0 0 0 0 0 0 0 0 0 0 0 0 0 0 0 127 0" result="hardAlpha"/>
<feOffset dy="4"/>
<feGaussianBlur stdDeviation="2"/>
<feComposite in2="hardAlpha" operator="arithmetic" k2="-1" k3="1"/>
<feColorMatrix type="matrix" values="0 0 0 0 0 0 0 0 0 0 0 0 0 0 0 0 0 0 0.25 0"/>
<feBlend mode="normal" in2="shape" result="effect1_innerShadow_59_114"/>
</filter>
<filter id="filter10_i_59_114" x="28.019" y="38" width="51.9619" height="64" filterUnits="userSpaceOnUse" color-interpolation-filters="sRGB">
<feFlood flood-opacity="0" result="BackgroundImageFix"/>
<feBlend mode="normal" in="SourceGraphic" in2="BackgroundImageFix" result="shape"/>
<feColorMatrix in="SourceAlpha" type="matrix" values="0 0 0 0 0 0 0 0 0 0 0 0 0 0 0 0 0 0 127 0" result="hardAlpha"/>
<feOffset dy="4"/>
<feGaussianBlur stdDeviation="2"/>
<feComposite in2="hardAlpha" operator="arithmetic" k2="-1" k3="1"/>
<feColorMatrix type="matrix" values="0 0 0 0 0 0 0 0 0 0 0 0 0 0 0 0 0 0 0.25 0"/>
<feBlend mode="normal" in2="shape" result="effect1_innerShadow_59_114"/>
</filter>
<filter id="filter11_i_59_114" x="4.01904" y="-6" width="51.9619" height="64" filterUnits="userSpaceOnUse" color-interpolation-filters="sRGB">
<feFlood flood-opacity="0" result="BackgroundImageFix"/>
<feBlend mode="normal" in="SourceGraphic" in2="BackgroundImageFix" result="shape"/>
<feColorMatrix in="SourceAlpha" type="matrix" values="0 0 0 0 0 0 0 0 0 0 0 0 0 0 0 0 0 0 127 0" result="hardAlpha"/>
<feOffset dy="4"/>
<feGaussianBlur stdDeviation="2"/>
<feComposite in2="hardAlpha" operator="arithmetic" k2="-1" k3="1"/>
<feColorMatrix type="matrix" values="0 0 0 0 0 0 0 0 0 0 0 0 0 0 0 0 0 0 0.25 0"/>
<feBlend mode="normal" in2="shape" result="effect1_innerShadow_59_114"/>
</filter>
<filter id="filter12_i_59_114" x="29.019" y="-49" width="51.9619" height="64" filterUnits="userSpaceOnUse" color-interpolation-filters="sRGB">
<feFlood flood-opacity="0" result="BackgroundImageFix"/>
<feBlend mode="normal" in="SourceGraphic" in2="BackgroundImageFix" result="shape"/>
<feColorMatrix in="SourceAlpha" type="matrix" values="0 0 0 0 0 0 0 0 0 0 0 0 0 0 0 0 0 0 127 0" result="hardAlpha"/>
<feOffset dy="4"/>
<feGaussianBlur stdDeviation="2"/>
<feComposite in2="hardAlpha" operator="arithmetic" k2="-1" k3="1"/>
<feColorMatrix type="matrix" values="0 0 0 0 0 0 0 0 0 0 0 0 0 0 0 0 0 0 0.25 0"/>
<feBlend mode="normal" in2="shape" result="effect1_innerShadow_59_114"/>
</filter>
<filter id="filter13_i_59_114" x="104.019" y="-6" width="51.9619" height="64" filterUnits="userSpaceOnUse" color-interpolation-filters="sRGB">
<feFlood flood-opacity="0" result="BackgroundImageFix"/>
<feBlend mode="normal" in="SourceGraphic" in2="BackgroundImageFix" result="shape"/>
<feColorMatrix in="SourceAlpha" type="matrix" values="0 0 0 0 0 0 0 0 0 0 0 0 0 0 0 0 0 0 127 0" result="hardAlpha"/>
<feOffset dy="4"/>
<feGaussianBlur stdDeviation="2"/>
<feComposite in2="hardAlpha" operator="arithmetic" k2="-1" k3="1"/>
<feColorMatrix type="matrix" values="0 0 0 0 0 0 0 0 0 0 0 0 0 0 0 0 0 0 0.25 0"/>
<feBlend mode="normal" in2="shape" result="effect1_innerShadow_59_114"/>
</filter>
<filter id="filter14_i_59_114" x="78.019" y="-49" width="51.9619" height="64" filterUnits="userSpaceOnUse" color-interpolation-filters="sRGB">
<feFlood flood-opacity="0" result="BackgroundImageFix"/>
<feBlend mode="normal" in="SourceGraphic" in2="BackgroundImageFix" result="shape"/>
<feColorMatrix in="SourceAlpha" type="matrix" values="0 0 0 0 0 0 0 0 0 0 0 0 0 0 0 0 0 0 127 0" result="hardAlpha"/>
<feOffset dy="4"/>
<feGaussianBlur stdDeviation="2"/>
<feComposite in2="hardAlpha" operator="arithmetic" k2="-1" k3="1"/>
<feColorMatrix type="matrix" values="0 0 0 0 0 0 0 0 0 0 0 0 0 0 0 0 0 0 0.25 0"/>
<feBlend mode="normal" in2="shape" result="effect1_innerShadow_59_114"/>
</filter>
<filter id="filter15_d_59_114" x="60" y="9" width="40" height="40" filterUnits="userSpaceOnUse" color-interpolation-filters="sRGB">
<feFlood flood-opacity="0" result="BackgroundImageFix"/>
<feColorMatrix in="SourceAlpha" type="matrix" values="0 0 0 0 0 0 0 0 0 0 0 0 0 0 0 0 0 0 127 0" result="hardAlpha"/>
<feOffset dy="4"/>
<feGaussianBlur stdDeviation="2"/>
<feComposite in2="hardAlpha" operator="out"/>
<feColorMatrix type="matrix" values="0 0 0 0 0 0 0 0 0 0 0 0 0 0 0 0 0 0 0.25 0"/>
<feBlend mode="normal" in2="BackgroundImageFix" result="effect1_dropShadow_59_114"/>
<feBlend mode="normal" in="SourceGraphic" in2="effect1_dropShadow_59_114" result="shape"/>
</filter>
<clipPath id="clip0_59_114">
<rect width="160" height="90" fill="white"/>
</clipPath>
</defs>
</svg>
