<svg width="160" height="90" viewBox="0 0 160 90" fill="none" xmlns="http://www.w3.org/2000/svg">
<g clip-path="url(#clip0_69_114)">
<rect width="160" height="90" fill="white"/>
<g filter="url(#filter0_i_69_114)">
<path d="M79.0192 -33.4227L104 -47.8453L128.981 -33.4227V-4.57735L104 9.8453L79.0192 -4.57735V-33.4227Z" stroke="#E9E9E9" stroke-width="2"/>
</g>
<g filter="url(#filter1_i_69_114)">
<path d="M-19.9808 -33.4227L5 -47.8453L29.9808 -33.4227V-4.57735L5 9.8453L-19.9808 -4.57735V-33.4227Z" stroke="#E9E9E9" stroke-width="2"/>
</g>
<g filter="url(#filter2_i_69_114)">
<path d="M30.0192 -33.4227L55 -47.8453L79.9808 -33.4227V-4.57735L55 9.8453L30.0192 -4.57735V-33.4227Z" stroke="#E9E9E9" stroke-width="2"/>
</g>
<g filter="url(#filter3_i_69_114)">
<path d="M132.019 -33.4227L157 -47.8453L181.981 -33.4227V-4.57735L157 9.8453L132.019 -4.57735V-33.4227Z" stroke="#E9E9E9" stroke-width="2"/>
</g>
<g filter="url(#filter4_i_69_114)">
<path d="M130.019 53.5773L155 39.1547L179.981 53.5773V82.4226L155 96.8453L130.019 82.4226V53.5773Z" stroke="#E9E9E9" stroke-width="2"/>
</g>
<g filter="url(#filter5_i_69_114)">
<path d="M156.019 10.5773L181 -3.8453L205.981 10.5773V39.4226L181 53.8453L156.019 39.4226V10.5773Z" stroke="#E9E9E9" stroke-width="2"/>
</g>
<g filter="url(#filter6_i_69_114)">
<path d="M-19.9808 53.5773L5 39.1547L29.9808 53.5773V82.4226L5 96.8453L-19.9808 82.4226V53.5773Z" stroke="#E9E9E9" stroke-width="2"/>
</g>
<g filter="url(#filter7_i_69_114)">
<path d="M-44.9808 9.57735L-20 -4.8453L4.98076 9.57735V38.4226L-20 52.8453L-44.9808 38.4226V9.57735Z" stroke="#E9E9E9" stroke-width="2"/>
</g>
<g filter="url(#filter8_i_69_114)">
<path d="M105 38L130.981 53V83L105 98L79.0192 83V53L105 38Z" fill="#636363"/>
</g>
<path d="M80.0192 53.5773L105 39.1547L129.981 53.5773V82.4226L105 96.8453L80.0192 82.4226V53.5773Z" stroke="#E9E9E9" stroke-width="2"/>
<g filter="url(#filter9_i_69_114)">
<path d="M29.0192 53.5773L54 39.1547L78.9808 53.5773V82.4226L54 96.8453L29.0192 82.4226V53.5773Z" stroke="#E9E9E9" stroke-width="2"/>
</g>
<g filter="url(#filter10_i_69_114)">
<path d="M5.01924 9.57735L30 -4.8453L54.9808 9.57735V38.4226L30 52.8453L5.01924 38.4226V9.57735Z" stroke="#E9E9E9" stroke-width="2"/>
</g>
<g filter="url(#filter11_i_69_114)">
<path d="M30.0192 -33.4227L55 -47.8453L79.9808 -33.4227V-4.57735L55 9.8453L30.0192 -4.57735V-33.4227Z" stroke="#E9E9E9" stroke-width="2"/>
</g>
<g filter="url(#filter12_i_69_114)">
<path d="M105.019 9.57735L130 -4.8453L154.981 9.57735V38.4226L130 52.8453L105.019 38.4226V9.57735Z" stroke="#E9E9E9" stroke-width="2"/>
</g>
<g filter="url(#filter13_i_69_114)">
<path d="M79.0192 -33.4227L104 -47.8453L128.981 -33.4227V-4.57735L104 9.8453L79.0192 -4.57735V-33.4227Z" stroke="#E9E9E9" stroke-width="2"/>
</g>
<g clip-path="url(#clip1_69_114)">
<path d="M105 71.3596C106.969 71.3596 108.565 69.7634 108.565 67.7943C108.565 65.8253 106.969 64.2291 105 64.2291C103.031 64.2291 101.435 65.8253 101.435 67.7943C101.435 69.7634 103.031 71.3596 105 71.3596Z" fill="#61DAFB"/>
<path d="M105 75.0987C115.566 75.0987 124.131 71.8284 124.131 67.7943C124.131 63.7603 115.566 60.49 105 60.49C94.4346 60.49 85.8696 63.7603 85.8696 67.7943C85.8696 71.8284 94.4346 75.0987 105 75.0987Z" stroke="#61DAFB"/>
<path d="M98.6745 71.4465C103.957 80.5964 111.072 86.3788 114.565 84.3618C118.059 82.3447 116.609 73.2921 111.326 64.1422C106.043 54.9922 98.9286 49.2098 95.435 51.2269C91.9414 53.2439 93.3917 62.2966 98.6745 71.4465Z" stroke="#61DAFB"/>
<path d="M98.6744 64.1421C93.3917 73.2921 91.9413 82.3447 95.4349 84.3617C98.9285 86.3788 106.043 80.5964 111.326 71.4465C116.609 62.2965 118.059 53.2439 114.565 51.2269C111.072 49.2098 103.957 54.9922 98.6744 64.1421Z" stroke="#61DAFB"/>
</g>
</g>
<defs>
<filter id="filter0_i_69_114" x="78.019" y="-49" width="51.9619" height="64" filterUnits="userSpaceOnUse" color-interpolation-filters="sRGB">
<feFlood flood-opacity="0" result="BackgroundImageFix"/>
<feBlend mode="normal" in="SourceGraphic" in2="BackgroundImageFix" result="shape"/>
<feColorMatrix in="SourceAlpha" type="matrix" values="0 0 0 0 0 0 0 0 0 0 0 0 0 0 0 0 0 0 127 0" result="hardAlpha"/>
<feOffset dy="4"/>
<feGaussianBlur stdDeviation="2"/>
<feComposite in2="hardAlpha" operator="arithmetic" k2="-1" k3="1"/>
<feColorMatrix type="matrix" values="0 0 0 0 0 0 0 0 0 0 0 0 0 0 0 0 0 0 0.25 0"/>
<feBlend mode="normal" in2="shape" result="effect1_innerShadow_69_114"/>
</filter>
<filter id="filter1_i_69_114" x="-20.981" y="-49" width="51.9619" height="64" filterUnits="userSpaceOnUse" color-interpolation-filters="sRGB">
<feFlood flood-opacity="0" result="BackgroundImageFix"/>
<feBlend mode="normal" in="SourceGraphic" in2="BackgroundImageFix" result="shape"/>
<feColorMatrix in="SourceAlpha" type="matrix" values="0 0 0 0 0 0 0 0 0 0 0 0 0 0 0 0 0 0 127 0" result="hardAlpha"/>
<feOffset dy="4"/>
<feGaussianBlur stdDeviation="2"/>
<feComposite in2="hardAlpha" operator="arithmetic" k2="-1" k3="1"/>
<feColorMatrix type="matrix" values="0 0 0 0 0 0 0 0 0 0 0 0 0 0 0 0 0 0 0.25 0"/>
<feBlend mode="normal" in2="shape" result="effect1_innerShadow_69_114"/>
</filter>
<filter id="filter2_i_69_114" x="29.019" y="-49" width="51.9619" height="64" filterUnits="userSpaceOnUse" color-interpolation-filters="sRGB">
<feFlood flood-opacity="0" result="BackgroundImageFix"/>
<feBlend mode="normal" in="SourceGraphic" in2="BackgroundImageFix" result="shape"/>
<feColorMatrix in="SourceAlpha" type="matrix" values="0 0 0 0 0 0 0 0 0 0 0 0 0 0 0 0 0 0 127 0" result="hardAlpha"/>
<feOffset dy="4"/>
<feGaussianBlur stdDeviation="2"/>
<feComposite in2="hardAlpha" operator="arithmetic" k2="-1" k3="1"/>
<feColorMatrix type="matrix" values="0 0 0 0 0 0 0 0 0 0 0 0 0 0 0 0 0 0 0.25 0"/>
<feBlend mode="normal" in2="shape" result="effect1_innerShadow_69_114"/>
</filter>
<filter id="filter3_i_69_114" x="131.019" y="-49" width="51.9619" height="64" filterUnits="userSpaceOnUse" color-interpolation-filters="sRGB">
<feFlood flood-opacity="0" result="BackgroundImageFix"/>
<feBlend mode="normal" in="SourceGraphic" in2="BackgroundImageFix" result="shape"/>
<feColorMatrix in="SourceAlpha" type="matrix" values="0 0 0 0 0 0 0 0 0 0 0 0 0 0 0 0 0 0 127 0" result="hardAlpha"/>
<feOffset dy="4"/>
<feGaussianBlur stdDeviation="2"/>
<feComposite in2="hardAlpha" operator="arithmetic" k2="-1" k3="1"/>
<feColorMatrix type="matrix" values="0 0 0 0 0 0 0 0 0 0 0 0 0 0 0 0 0 0 0.25 0"/>
<feBlend mode="normal" in2="shape" result="effect1_innerShadow_69_114"/>
</filter>
<filter id="filter4_i_69_114" x="129.019" y="38" width="51.9619" height="64" filterUnits="userSpaceOnUse" color-interpolation-filters="sRGB">
<feFlood flood-opacity="0" result="BackgroundImageFix"/>
<feBlend mode="normal" in="SourceGraphic" in2="BackgroundImageFix" result="shape"/>
<feColorMatrix in="SourceAlpha" type="matrix" values="0 0 0 0 0 0 0 0 0 0 0 0 0 0 0 0 0 0 127 0" result="hardAlpha"/>
<feOffset dy="4"/>
<feGaussianBlur stdDeviation="2"/>
<feComposite in2="hardAlpha" operator="arithmetic" k2="-1" k3="1"/>
<feColorMatrix type="matrix" values="0 0 0 0 0 0 0 0 0 0 0 0 0 0 0 0 0 0 0.25 0"/>
<feBlend mode="normal" in2="shape" result="effect1_innerShadow_69_114"/>
</filter>
<filter id="filter5_i_69_114" x="155.019" y="-5" width="51.9619" height="64" filterUnits="userSpaceOnUse" color-interpolation-filters="sRGB">
<feFlood flood-opacity="0" result="BackgroundImageFix"/>
<feBlend mode="normal" in="SourceGraphic" in2="BackgroundImageFix" result="shape"/>
<feColorMatrix in="SourceAlpha" type="matrix" values="0 0 0 0 0 0 0 0 0 0 0 0 0 0 0 0 0 0 127 0" result="hardAlpha"/>
<feOffset dy="4"/>
<feGaussianBlur stdDeviation="2"/>
<feComposite in2="hardAlpha" operator="arithmetic" k2="-1" k3="1"/>
<feColorMatrix type="matrix" values="0 0 0 0 0 0 0 0 0 0 0 0 0 0 0 0 0 0 0.25 0"/>
<feBlend mode="normal" in2="shape" result="effect1_innerShadow_69_114"/>
</filter>
<filter id="filter6_i_69_114" x="-20.981" y="38" width="51.9619" height="64" filterUnits="userSpaceOnUse" color-interpolation-filters="sRGB">
<feFlood flood-opacity="0" result="BackgroundImageFix"/>
<feBlend mode="normal" in="SourceGraphic" in2="BackgroundImageFix" result="shape"/>
<feColorMatrix in="SourceAlpha" type="matrix" values="0 0 0 0 0 0 0 0 0 0 0 0 0 0 0 0 0 0 127 0" result="hardAlpha"/>
<feOffset dy="4"/>
<feGaussianBlur stdDeviation="2"/>
<feComposite in2="hardAlpha" operator="arithmetic" k2="-1" k3="1"/>
<feColorMatrix type="matrix" values="0 0 0 0 0 0 0 0 0 0 0 0 0 0 0 0 0 0 0.25 0"/>
<feBlend mode="normal" in2="shape" result="effect1_innerShadow_69_114"/>
</filter>
<filter id="filter7_i_69_114" x="-45.981" y="-6" width="51.9619" height="64" filterUnits="userSpaceOnUse" color-interpolation-filters="sRGB">
<feFlood flood-opacity="0" result="BackgroundImageFix"/>
<feBlend mode="normal" in="SourceGraphic" in2="BackgroundImageFix" result="shape"/>
<feColorMatrix in="SourceAlpha" type="matrix" values="0 0 0 0 0 0 0 0 0 0 0 0 0 0 0 0 0 0 127 0" result="hardAlpha"/>
<feOffset dy="4"/>
<feGaussianBlur stdDeviation="2"/>
<feComposite in2="hardAlpha" operator="arithmetic" k2="-1" k3="1"/>
<feColorMatrix type="matrix" values="0 0 0 0 0 0 0 0 0 0 0 0 0 0 0 0 0 0 0.25 0"/>
<feBlend mode="normal" in2="shape" result="effect1_innerShadow_69_114"/>
</filter>
<filter id="filter8_i_69_114" x="79.019" y="38" width="51.9619" height="64" filterUnits="userSpaceOnUse" color-interpolation-filters="sRGB">
<feFlood flood-opacity="0" result="BackgroundImageFix"/>
<feBlend mode="normal" in="SourceGraphic" in2="BackgroundImageFix" result="shape"/>
<feColorMatrix in="SourceAlpha" type="matrix" values="0 0 0 0 0 0 0 0 0 0 0 0 0 0 0 0 0 0 127 0" result="hardAlpha"/>
<feOffset dy="4"/>
<feGaussianBlur stdDeviation="2"/>
<feComposite in2="hardAlpha" operator="arithmetic" k2="-1" k3="1"/>
<feColorMatrix type="matrix" values="0 0 0 0 0 0 0 0 0 0 0 0 0 0 0 0 0 0 0.25 0"/>
<feBlend mode="normal" in2="shape" result="effect1_innerShadow_69_114"/>
</filter>
<filter id="filter9_i_69_114" x="28.019" y="38" width="51.9619" height="64" filterUnits="userSpaceOnUse" color-interpolation-filters="sRGB">
<feFlood flood-opacity="0" result="BackgroundImageFix"/>
<feBlend mode="normal" in="SourceGraphic" in2="BackgroundImageFix" result="shape"/>
<feColorMatrix in="SourceAlpha" type="matrix" values="0 0 0 0 0 0 0 0 0 0 0 0 0 0 0 0 0 0 127 0" result="hardAlpha"/>
<feOffset dy="4"/>
<feGaussianBlur stdDeviation="2"/>
<feComposite in2="hardAlpha" operator="arithmetic" k2="-1" k3="1"/>
<feColorMatrix type="matrix" values="0 0 0 0 0 0 0 0 0 0 0 0 0 0 0 0 0 0 0.25 0"/>
<feBlend mode="normal" in2="shape" result="effect1_innerShadow_69_114"/>
</filter>
<filter id="filter10_i_69_114" x="4.01904" y="-6" width="51.9619" height="64" filterUnits="userSpaceOnUse" color-interpolation-filters="sRGB">
<feFlood flood-opacity="0" result="BackgroundImageFix"/>
<feBlend mode="normal" in="SourceGraphic" in2="BackgroundImageFix" result="shape"/>
<feColorMatrix in="SourceAlpha" type="matrix" values="0 0 0 0 0 0 0 0 0 0 0 0 0 0 0 0 0 0 127 0" result="hardAlpha"/>
<feOffset dy="4"/>
<feGaussianBlur stdDeviation="2"/>
<feComposite in2="hardAlpha" operator="arithmetic" k2="-1" k3="1"/>
<feColorMatrix type="matrix" values="0 0 0 0 0 0 0 0 0 0 0 0 0 0 0 0 0 0 0.25 0"/>
<feBlend mode="normal" in2="shape" result="effect1_innerShadow_69_114"/>
</filter>
<filter id="filter11_i_69_114" x="29.019" y="-49" width="51.9619" height="64" filterUnits="userSpaceOnUse" color-interpolation-filters="sRGB">
<feFlood flood-opacity="0" result="BackgroundImageFix"/>
<feBlend mode="normal" in="SourceGraphic" in2="BackgroundImageFix" result="shape"/>
<feColorMatrix in="SourceAlpha" type="matrix" values="0 0 0 0 0 0 0 0 0 0 0 0 0 0 0 0 0 0 127 0" result="hardAlpha"/>
<feOffset dy="4"/>
<feGaussianBlur stdDeviation="2"/>
<feComposite in2="hardAlpha" operator="arithmetic" k2="-1" k3="1"/>
<feColorMatrix type="matrix" values="0 0 0 0 0 0 0 0 0 0 0 0 0 0 0 0 0 0 0.25 0"/>
<feBlend mode="normal" in2="shape" result="effect1_innerShadow_69_114"/>
</filter>
<filter id="filter12_i_69_114" x="104.019" y="-6" width="51.9619" height="64" filterUnits="userSpaceOnUse" color-interpolation-filters="sRGB">
<feFlood flood-opacity="0" result="BackgroundImageFix"/>
<feBlend mode="normal" in="SourceGraphic" in2="BackgroundImageFix" result="shape"/>
<feColorMatrix in="SourceAlpha" type="matrix" values="0 0 0 0 0 0 0 0 0 0 0 0 0 0 0 0 0 0 127 0" result="hardAlpha"/>
<feOffset dy="4"/>
<feGaussianBlur stdDeviation="2"/>
<feComposite in2="hardAlpha" operator="arithmetic" k2="-1" k3="1"/>
<feColorMatrix type="matrix" values="0 0 0 0 0 0 0 0 0 0 0 0 0 0 0 0 0 0 0.25 0"/>
<feBlend mode="normal" in2="shape" result="effect1_innerShadow_69_114"/>
</filter>
<filter id="filter13_i_69_114" x="78.019" y="-49" width="51.9619" height="64" filterUnits="userSpaceOnUse" color-interpolation-filters="sRGB">
<feFlood flood-opacity="0" result="BackgroundImageFix"/>
<feBlend mode="normal" in="SourceGraphic" in2="BackgroundImageFix" result="shape"/>
<feColorMatrix in="SourceAlpha" type="matrix" values="0 0 0 0 0 0 0 0 0 0 0 0 0 0 0 0 0 0 127 0" result="hardAlpha"/>
<feOffset dy="4"/>
<feGaussianBlur stdDeviation="2"/>
<feComposite in2="hardAlpha" operator="arithmetic" k2="-1" k3="1"/>
<feColorMatrix type="matrix" values="0 0 0 0 0 0 0 0 0 0 0 0 0 0 0 0 0 0 0.25 0"/>
<feBlend mode="normal" in2="shape" result="effect1_innerShadow_69_114"/>
</filter>
<clipPath id="clip0_69_114">
<rect width="160" height="90" fill="white"/>
</clipPath>
<clipPath id="clip1_69_114">
<rect width="40" height="35.5887" fill="white" transform="translate(85 50)"/>
</clipPath>
</defs>
</svg>
